<svg id="Objects" xmlns="http://www.w3.org/2000/svg" viewBox="0 0 98.88 88.33"><defs><style>.cls-1{fill:#fff;}</style></defs><title>AI1icon</title><path class="cls-1" d="M85.61,169.8A6.5,6.5,0,0,0,80,173a11.33,11.33,0,0,0-17.06,8.81,8.22,8.22,0,0,0-1.58-.16,8.6,8.6,0,0,0-8.6,8.6,8.48,8.48,0,0,0,.47,2.77,18.29,18.29,0,0,0-.06,31.07A16.14,16.14,0,0,0,66.89,248.8c0.41,0,.82,0,1.22-0.06v0.06A8.32,8.32,0,0,0,82,255a5.33,5.33,0,0,0,10.16-2.24h0V176.3A6.5,6.5,0,0,0,85.61,169.8ZM65.77,218.33v11.28a3.93,3.93,0,1,1-1,0V217.94L73.89,208h4.39a1.94,1.94,0,0,1,1.37-1.37v-5.17H60.15v-8.06a3.93,3.93,0,1,1,1,0v7.06h19.5v6.17A1.94,1.94,0,1,1,78.28,209h-4Zm20.69,5.43a1.94,1.94,0,0,1-1.94,1.94,1.7,1.7,0,0,1-.81-0.19l-6.52,7.8v13a2,2,0,1,1-1,.26V233l6.75-8.07a1.9,1.9,0,0,1-.36-1.12A1.93,1.93,0,0,1,84,221.89V189.38a1.94,1.94,0,1,1,1,0v32.51A1.93,1.93,0,0,1,86.46,223.76Z" transform="translate(-44.56 -169.8)"/><path class="cls-1" d="M143.44,208.59A18.29,18.29,0,0,0,134.77,193a8.48,8.48,0,0,0,.47-2.77,8.6,8.6,0,0,0-8.59-8.6,8.41,8.41,0,0,0-1.59.16A11.33,11.33,0,0,0,108,173a6.49,6.49,0,0,0-12.1,3.28v76.49h0A5.33,5.33,0,0,0,106.06,255a8.32,8.32,0,0,0,13.84-6.24s0,0,0-.06c0.41,0,.81.06,1.22,0.06a16.14,16.14,0,0,0,13.72-24.69A18.28,18.28,0,0,0,143.44,208.59ZM110.15,250.2a1.94,1.94,0,0,1,0-3.88v-13l-6.52-7.8a1.9,1.9,0,0,1-.82.19,1.94,1.94,0,0,1-.5-3.81V189.38a1.94,1.94,0,1,1,1,0v32.51a1.93,1.93,0,0,1,1.44,1.87,1.84,1.84,0,0,1-.36,1.11l6.76,8.08v13.63A1.94,1.94,0,0,1,110.15,250.2Zm16.5-58.75a1.93,1.93,0,0,1-1.87-1.44H113.52l0,14.6a4,4,0,0,1,3.41,3.9,3.91,3.91,0,0,1-.85,2.44l6.41,7v11.67a3.94,3.94,0,1,1-1,0V218.33l-6.13-6.68a3.93,3.93,0,1,1-2.87-7V189h12.26A1.93,1.93,0,1,1,126.65,191.45Z" transform="translate(-44.56 -169.8)"/><path class="cls-1" d="M76.19,246.58a1.69,1.69,0,0,1,.5-0.2,1.76,1.76,0,0,1,.46-0.06h0Z" transform="translate(-44.56 -169.8)"/></svg>