<svg id="Objects" xmlns="http://www.w3.org/2000/svg" viewBox="0 0 112.08 130.09"><defs><style>.cls-1{fill:#fff;}</style></defs><title>AI2</title><rect class="cls-1" x="37.17" y="110.85" width="37.6" height="19.24"/><circle class="cls-1" cx="1.66" cy="54.81" r="1.66"/><polygon class="cls-1" points="1.23 54.81 2.09 54.81 2.09 66.03 17.61 66 19.71 64.06 20.68 63.18 21.32 62.6 23.98 60.15 25.96 58.34 26.02 58.34 24.62 60.72 22.43 62.73 21.95 63.18 21.32 63.76 20.97 64.06 18.32 66.5 18.32 66.89 1.23 66.89 1.23 54.81"/><circle class="cls-1" cx="6.21" cy="45.77" r="1.66"/><polygon class="cls-1" points="5.79 45.77 6.64 45.77 6.64 63.21 20.68 63.18 22.16 63.18 22.43 62.73 23.98 60.15 25.96 58.34 26.02 58.34 24.62 60.72 22.88 63.68 22.88 64.06 5.79 64.06 5.79 45.77"/><circle class="cls-1" cx="1.66" cy="85.64" r="1.66"/><polygon class="cls-1" points="1.23 73.57 18.32 73.57 18.32 73.95 20.97 76.39 21.32 76.69 21.93 77.27 22.44 77.73 24.63 79.75 26.02 82.11 25.96 82.11 23.99 80.31 21.32 77.85 20.68 77.27 19.72 76.39 17.61 74.45 2.09 74.42 2.09 85.63 1.23 85.63 1.23 73.57"/><circle class="cls-1" cx="6.21" cy="94.68" r="1.66"/><polygon class="cls-1" points="5.79 76.39 22.88 76.39 22.88 76.76 24.63 79.75 26.02 82.11 25.96 82.11 23.99 80.31 22.44 77.73 22.16 77.27 20.68 77.27 6.64 77.24 6.64 94.68 5.79 94.68 5.79 76.39"/><circle class="cls-1" cx="73.11" cy="1.66" r="1.66"/><polygon class="cls-1" points="73.11 1.23 73.11 2.09 61.89 2.09 61.92 17.61 63.85 19.71 64.74 20.67 65.32 21.32 67.77 23.98 69.58 25.96 69.58 26.02 67.2 24.62 65.19 22.43 64.74 21.95 64.16 21.32 63.85 20.97 61.42 18.32 61.03 18.32 61.03 1.23 73.11 1.23"/><circle class="cls-1" cx="82.15" cy="6.21" r="1.66"/><polygon class="cls-1" points="82.15 5.79 82.15 6.64 64.71 6.64 64.74 20.67 64.74 22.16 65.19 22.43 67.77 23.98 69.58 25.96 69.58 26.02 67.2 24.62 64.24 22.88 63.85 22.88 63.85 5.79 82.15 5.79"/><circle class="cls-1" cx="42.28" cy="1.66" r="1.66"/><polygon class="cls-1" points="54.35 1.23 54.35 18.32 53.97 18.32 51.53 20.97 51.22 21.32 50.65 21.93 50.19 22.44 48.17 24.63 45.8 26.02 45.8 25.96 47.61 23.99 50.07 21.32 50.65 20.67 51.53 19.72 53.47 17.61 53.49 2.09 42.28 2.09 42.28 1.23 54.35 1.23"/><circle class="cls-1" cx="33.24" cy="6.21" r="1.66"/><polygon class="cls-1" points="51.53 5.79 51.53 22.88 51.15 22.88 48.17 24.63 45.8 26.02 45.8 25.96 47.61 23.99 50.19 22.44 50.65 22.16 50.65 20.67 50.68 6.64 33.23 6.64 33.23 5.79 51.53 5.79"/><circle class="cls-1" cx="110.42" cy="53.92" r="1.66"/><polygon class="cls-1" points="110.84 53.92 109.99 53.92 109.99 65.14 94.47 65.1 92.37 63.17 91.4 62.28 90.76 61.7 88.09 59.26 86.12 57.45 86.05 57.45 87.45 59.82 89.65 61.84 90.13 62.28 90.76 62.87 91.1 63.17 93.75 65.61 93.75 65.99 110.84 65.99 110.84 53.92"/><circle class="cls-1" cx="105.86" cy="44.87" r="1.66"/><polygon class="cls-1" points="106.29 44.88 105.43 44.88 105.43 62.32 91.4 62.28 89.91 62.28 89.65 61.84 88.09 59.26 86.12 57.45 86.05 57.45 87.45 59.82 89.2 62.79 89.2 63.17 106.29 63.17 106.29 44.88"/><circle class="cls-1" cx="110.42" cy="84.74" r="1.66"/><polygon class="cls-1" points="110.84 72.68 93.75 72.68 93.75 73.06 91.1 75.5 90.76 75.8 90.14 76.38 89.63 76.84 87.44 78.85 86.05 81.22 86.12 81.22 88.09 79.42 90.76 76.96 91.4 76.38 92.36 75.5 94.47 73.56 109.99 73.53 109.99 84.74 110.84 84.74 110.84 72.68"/><circle class="cls-1" cx="105.86" cy="93.79" r="1.66"/><polygon class="cls-1" points="106.29 75.5 89.2 75.5 89.2 75.87 87.44 78.85 86.05 81.22 86.12 81.22 88.09 79.42 89.63 76.84 89.91 76.38 91.4 76.38 105.43 76.35 105.43 93.79 106.29 93.79 106.29 75.5"/><path class="cls-1" d="M110.44,343.64A16.39,16.39,0,1,1,94,327.25,16.4,16.4,0,0,1,110.44,343.64Z" transform="translate(-37.96 -294.78)"/><path class="cls-1" d="M130.79,352.68S139,308.9,96,307.29v0c-0.67,0-1.32,0-2,0H93.81c-0.64,0-1.3,0-2,0v0c-43,1.61-34.76,45.39-34.76,45.39-4.56-.26-6.21,2-6.35,5.3a6.29,6.29,0,0,0,0,.87,13.21,13.21,0,0,0,.18,1.94c0,0.29.09,0.58,0.14,0.88a40.67,40.67,0,0,0,2,6.68c0.11,0.3.23,0.59,0.34,0.88l0.81,1.92s0,0,0,0c0.13,0.3.26,0.59,0.4,0.87,3.07,6.31,7.68,7.87,7.68,7.87l0.58,3.34c6.81,27,22.28,34.28,30.81,34.28,9.27,0,24.46-7.29,31.28-34.28l0.57-3.34s5-1.71,8.1-8.76S140.88,352.11,130.79,352.68Zm-11.69-9.47v1.17a2.49,2.49,0,0,1-2,1.93l-1.51.38a21.38,21.38,0,0,1-3.3,8.8l0.87,1.45a2.48,2.48,0,0,1,.07,2.81l-0.82.82-0.19.19-0.82.82a2.48,2.48,0,0,1-2.81-.07l-1.18-.71a21.52,21.52,0,0,1-8.79,4.08l-0.33,1.36a2.49,2.49,0,0,1-1.93,2h-2.6a2.48,2.48,0,0,1-1.93-2l-0.25-1a21.37,21.37,0,0,1-9.47-3.46l-0.91.55a2.48,2.48,0,0,1-2.81.07l-0.82-.82-0.19-.19-0.82-.82a2.48,2.48,0,0,1,.07-2.81l0.4-.67a21.52,21.52,0,0,1-4.28-9.42l-0.85-.21a2.5,2.5,0,0,1-2-1.93v-2.6a2.5,2.5,0,0,1,2-1.93l0.67-.17a21.44,21.44,0,0,1,3.76-9.65l-0.49-.81a2.48,2.48,0,0,1-.07-2.81l0.82-.82,0.19-.19,0.82-.82a2.5,2.5,0,0,1,2.81.07l0.72,0.44a21.57,21.57,0,0,1,9.28-4l0.3-1.2a2.5,2.5,0,0,1,1.93-2h2.6a2.49,2.49,0,0,1,1.93,2l0.28,1.14a21.44,21.44,0,0,1,9,3.61l1.34-.81a2.48,2.48,0,0,1,2.81-.07l0.82,0.82,0.19,0.19,0.82,0.82a2.48,2.48,0,0,1-.07,2.81l-0.76,1.25a21.54,21.54,0,0,1,3.79,8.63l1.7,0.42a2.47,2.47,0,0,1,2,1.94c0,0.48,0,.9,0,1.16v0.26Z" transform="translate(-37.96 -294.78)"/></svg>