<svg id="Layer_5" data-name="Layer 5" xmlns="http://www.w3.org/2000/svg" viewBox="0 0 71.75 60.73"><defs><style>.cls-1,.cls-2{fill:#fff;}.cls-1{fill-rule:evenodd;}</style></defs><title>carcrashicon</title><path class="cls-1" d="M369.62,183.07h0l-2.1,4.4,3.64,3.35a0.74,0.74,0,0,1,.09.76,1.61,1.61,0,0,1-.48.19l-5-.57-2,4.39a0.52,0.52,0,0,1-.67.29,0.4,0.4,0,0,1-.29-0.38v0.09l-1-4.87-5-.57a0.6,0.6,0,0,1-.38-0.57,0.34,0.34,0,0,1,.29-0.39L361,186.8l-0.28-1.91,0.86-.48,0.57,2.49a0.68,0.68,0,0,1-.29.57l-3.25,1.82,3.73,0.38a0.78,0.78,0,0,1,.48.48l0.67,3.63,1.53-3.35a0.52,0.52,0,0,1,.57-0.38l3.73,0.48L366.56,188a0.59,0.59,0,0,1-.09-0.67L368,184l-3.25,1.81a0.58,0.58,0,0,1-.57,0l-1.81-1.72,1-.48,1.24,1.15,4.3-2.39a0.51,0.51,0,0,1,.76.19v0.48h0Z" transform="translate(-312.69 -139.26)"/><path class="cls-1" d="M376.69,158.6c-1-1.63-2-2.78-3.92-1.34-1.62,1.24-2.48.38-3.34-1.15-1.91-3.44-3.92-6.79-5.93-10.23-5.06-8.5-2.68-8-11.85-3.06-2.77,1.44-3,3-1.34,5.26,1,1.24,1.43,2.49-.38,3.54-7.36,4.2-14.72,8.41-22.08,12.71-1.25.77-2.3,0.77-2.78-.67-1.52-4.11-3.92-3.73-6.88-1.62a17.17,17.17,0,0,1-3.34,2c-2.49,1.15-2.68,2.58-1.34,4.78,3,4.78,5.64,9.75,8.41,14.63,0.67,1.14,1.72,2.29-.19,3.25s-2.58,2.1-1.24,4.2c1.53,2.59,3.15,1,4.39.1,2.78-2.2,5.26-2.2,7.84.38a16,16,0,0,0,2.87,2.11c2.68,2.29,5.54,2.29,8.6.47,3.73-2.2,7.55-4.39,11.38-6.59,3.44-2,6.88-4,10.23-5.93,5.73-3.25,6.4-4.21,5.35-10.61-0.77-4.21-.58-7.46,4.2-9C376.79,161.37,377.74,160.41,376.69,158.6Zm-18.83-7.84a8.85,8.85,0,0,1,1.34-.77c1.24-.57,2.39-2,4-1.72,1.44,0.19,1.73,1.82,2.2,3s-0.28,1.71-1.14,2.1c-1.25.76-2.39,1.53-3.64,2.2-1.72,1-3.15,2.58-4.87-.38S356.24,151.81,357.86,150.76Zm-24.18,11.56c2.1-1.24,4.3-2.48,6.5-3.72s4.3-2.49,6.5-3.73c1-.48,2-0.67,2.67.57s0.1,2-1,2.68l-12.91,7.45c-1,.58-2,0.86-2.77-0.38C331.77,163.85,332.63,163,333.68,162.32Zm-10.8,14.44c-1.92-3.16.57-3.64,2.29-4.69l0.58-.28c1-.58,1.91-1.06,2.77-1.63,1.72-1.14,2.48-.38,3.34,1.05s1.34,2.77-.67,3.73c-1.14.58-2.29,1.43-3.44,2C326.13,177.71,324.69,179.72,322.88,176.76Zm37.94,5.3c-5.73,3.44-11.56,6.69-17.3,10.13-2.48,1.44-4.68,1.44-6.88-.29-2-1.53-4-3.06-6-4.39-2.77-1.72-2.2-3,.29-4.3,5.73-3.16,11.37-6.5,17-9.75s11.57-6.7,17.3-10c2.11-1.24,3.44-1.15,3.54,1.62,0,0.29.1,0.48,0.1,0.67C370.1,178.43,371.62,175.75,360.82,182.06Z" transform="translate(-312.69 -139.26)"/><rect class="cls-2" x="5.41" y="57.58" width="66.34" height="3.15"/></svg>