<svg id="object" xmlns="http://www.w3.org/2000/svg" viewBox="0 0 1000 614.43"><defs><style>.cls-1{fill:#c67a6d;}.cls-2{fill:#bcbec0;}.cls-3{fill:#305399;}.cls-4{fill:#7db5db;}.cls-5{fill:#3b455a;}.cls-6{fill:#fee7de;}.cls-7{opacity:0.14;}.cls-8{fill:#fffdf0;}.cls-9{fill:#445e7a;}.cls-10,.cls-18,.cls-24{fill:#fff;}.cls-10,.cls-11,.cls-21{opacity:0.1;}.cls-11{fill:#000100;}.cls-12{fill:#f7f7f7;}.cls-13{fill:#efbfa5;}.cls-14{fill:#a6db63;}.cls-15{fill:#587bc9;}.cls-16{fill:#e4c9aa;}.cls-17{fill:#e2e2e2;}.cls-19{opacity:0.79;}.cls-20{fill:#3c3d43;}.cls-22{fill:#687480;}.cls-23{fill:#9cbaef;}.cls-24{opacity:0.06;}.cls-25{fill:#ffffeb;}.cls-26{fill:#8c343e;}.cls-27{fill:#294d87;}.cls-28{fill:#ffffed;}.cls-29{fill:#2f536b;}.cls-30{fill:#ebceb1;}.cls-31{fill:#d6c0b9;}.cls-32{fill:#babcbe;}.cls-33{fill:#589d9a;}.cls-34{opacity:0.2;}.cls-35{fill:#fffff1;}.cls-36{opacity:0.25;}</style></defs><title>homepageillustration</title><path class="cls-1" d="M565.18,323.57a3.54,3.54,0,0,1,1,0c3,0.46,4.3,2.5,7.05,3.76,1.23,0.56,4.16-1.31,4.57,1.49,0.15,1,.16,3.61.47,5.81,0.44,3.21,2.93,7,5.47,9.67,10,10.43,22.51,17.85,35.15,24.8a5.18,5.18,0,0,0,2.3.82c1.47,0,2.66-1.13,3.68-2.19a110.33,110.33,0,0,1,15.5-13.34c5-3.53,10.38-6.71,16.38-7.75s12.72,0.38,16.81,4.89a14.46,14.46,0,0,1,3.33,12.73c-2.53,11-18.81,13.87-27.87,17.3a196.33,196.33,0,0,1-26.33,7.92,8.45,8.45,0,0,1-3.36.28,8.58,8.58,0,0,1-3.21-1.61c-12.77-8.85-24.69-18.79-36.47-29-3.24-2.81-4.59-7-7.6-9.54-1.93-1.64-4.62-1.54-6.78-2.69a23.57,23.57,0,0,1-6.22-5c-3.09-3.63-2-8.42-1.38-12.7a5.11,5.11,0,0,1,.82-2.61c1-1.33,2.47-1.8,4-2.32A14.34,14.34,0,0,1,565.18,323.57Z" transform="translate(-49.73 -98.49)"/><path class="cls-2" d="M651.31,377.79l-17.09-21.47c0.37,0.46,30.89-27.83,32.77-29.45,7.16-6.19,14.62-12.55,23.7-15.19,19.4-5.63,36,15.17,24.22,32.45-12.76,18.76-33.76,34.23-55.21,41.44a2.86,2.86,0,0,1-1.44.22,2.92,2.92,0,0,1-1.56-1.22Z" transform="translate(-49.73 -98.49)"/><polygon class="cls-1" points="629.13 559.54 629.44 582.08 616.43 582.25 616.09 557.27 629.13 559.54"/><path class="cls-3" d="M667.31,677.21l11.32,3.84,3.37,3.73-0.57,8.83L650.84,696h0a7.06,7.06,0,0,1,3.41-10.62l1.42-.5Z" transform="translate(-49.73 -98.49)"/><polygon class="cls-1" points="722.89 537.94 731.51 558.67 719.54 563.9 709.99 540.92 722.89 537.94"/><path class="cls-3" d="M769.49,662.77a10,10,0,0,1,1.51-1.38c1.44-1.08,13-7.39,14-4.54a3.27,3.27,0,0,1,.05,1.46,110.66,110.66,0,0,1-5.56,24c-1.17,3.31-2.95,7-6.29,7.81a9.64,9.64,0,0,1-4.47-.25,45.6,45.6,0,0,1-6.37-2,3.53,3.53,0,0,1-2-1.39c-0.79-1.46.59-3.19,2-4s3.18-1.35,3.88-2.86a5.89,5.89,0,0,0,.4-2.19C767,671.92,766.12,666.59,769.49,662.77Z" transform="translate(-49.73 -98.49)"/><path class="cls-4" d="M690.88,553.6c4.27,20,16.47,34.43,29.51,49.16a631.67,631.67,0,0,1,42,52.95l16.94-7.25c-4.72-28.15-17.73-54-27.81-80.61-7-18.5-12.68-38.07-13-58.06-0.15-9.94,2.19-19,3.45-28.71,1.56-12,1.65-24.26,3.05-36.3,0.47-4,.74-8.81-2.28-11.43a10.27,10.27,0,0,0-4.85-2C673.69,418.57,682.76,515.5,690.88,553.6Z" transform="translate(-49.73 -98.49)"/><path class="cls-4" d="M743.19,448.54a140.06,140.06,0,0,0-3.63-32.81c-18.27-1-38.91,1.07-57,4.83-17.66,3.68-28.67,7.62-28.8,27.27-0.23,36.16-14,67-20,101.72-3.46,20.2,2.51,38.27,9.13,57a647.1,647.1,0,0,1,19.3,65.35l18.36-.11c6-27.89,3.55-56.85,4.06-85.41,0.36-19.85,2.34-40.16,9.44-58.78,7.81-20.47,19.06-12.32,32-24.19C738.65,491.84,743.13,469.54,743.19,448.54Z" transform="translate(-49.73 -98.49)"/><path class="cls-2" d="M722.45,309.38a49.39,49.39,0,0,1,5.54,5.46L732.7,320c5.44,6,8.12,14.76,10.45,22.36,12.26,40,16.67,94.89,8.71,136.7-30.2,2.68-65.16-5.14-95.29-9.36-2.93-.41-6.25-1.08-7.77-3.69a10.53,10.53,0,0,1-.95-5.36c0-26.54,5.47-55.06,10.59-81.22a292.11,292.11,0,0,1,8.24-32.69c3.62-11.33,7.7-23.57,16.16-32.14,9.06-9.17,26.4-13.7,37.74-6.54A21.07,21.07,0,0,1,722.45,309.38Z" transform="translate(-49.73 -98.49)"/><path class="cls-1" d="M719.15,315l1.64-10.83a19.37,19.37,0,0,0,2.08-1.18c12.6-8.25,33.72-52.57.15-62.5-30.49-9-28.9,34-23,52a26.91,26.91,0,0,0,4.39,8.49c1.38,1.72,1.69,1.39,1.49,3.39s-2.07,4.12-2.49,6.15a8.47,8.47,0,0,0,.95,6.41,8.38,8.38,0,0,0,3,2.59,9.26,9.26,0,0,0,6.1,1.17A7.77,7.77,0,0,0,719.15,315Z" transform="translate(-49.73 -98.49)"/><path class="cls-5" d="M692.9,276.18a68.92,68.92,0,0,0,7.75,16.21,118.82,118.82,0,0,1,3.71-31.46,3.12,3.12,0,0,0,0-2.35,2.76,2.76,0,0,0-1.89-1C689.61,254.69,689.65,266.2,692.9,276.18Z" transform="translate(-49.73 -98.49)"/><path class="cls-5" d="M726.63,292.14c2.06,3,6.57,2.17,9.75.53,13-6.73,20.73-22.94,17.83-37.63-2.42-12.29-17.52-21.51-20.57-6.28-1.08,5.4,2.12,12.88,1.39,18.88C734,276.2,730.1,284.39,726.63,292.14Z" transform="translate(-49.73 -98.49)"/><path class="cls-5" d="M693,229.16c-1.46.59-2.95,1.22-4.52,1.85-3.25,1.3-5.6,1.74-8.94-.21-1-.56-7.37-6.78-5.82-8.07-10.23,8.56-1.82,21.06,2,29.91,2.59,6,3.12,14.38,8.93,18.28,6.39,4.29,10.78-1.13,16.58-3.56,5.12-2.14,10.65-3.3,15.86-5.21,8.64-3.16,21.5-8.72,18.64-20.51-3.34-13.76-16.93-17.19-29.13-16.14A44.67,44.67,0,0,0,693,229.16Z" transform="translate(-49.73 -98.49)"/><path class="cls-6" d="M730.75,462.35a3.55,3.55,0,0,1-.61-0.8c-1.35-2.73-.42-5-1-7.94-0.25-1.33-3.46-2.66-1.41-4.6,0.76-.72,2.86-2.21,4.49-3.72,2.38-2.2,4.06-6.43,4.77-10,1.35-6.82-2.65-26.62,5.64-30,19.49-7.88,5.79,32.7,5.43,36.51-0.24,2.52,1.39,4.67,1.69,7.09a23.57,23.57,0,0,1-.53,8c-1.2,4.61-5.77,6.44-9.61,8.42a5.11,5.11,0,0,1-2.61.82c-1.64,0-2.9-1-4.18-1.92A14.34,14.34,0,0,1,730.75,462.35Z" transform="translate(-49.73 -98.49)"/><path class="cls-2" d="M732.1,316.37c0.85,0.9,1.8,2.29,3.17,3.84,7.17,8.18,11.64,21.55,15.13,31.68A154.87,154.87,0,0,1,758,419.43a3.3,3.3,0,0,1-.89,2.28,3.34,3.34,0,0,1-2.38.44l-15.45-1.07a6.47,6.47,0,0,1-3.2-.79c-1.81-1.2-1.93-3.76-1.91-5.93a166,166,0,0,0-5-42.18c-1.64-6.51-6.08-14.19-6.54-20.76-0.41-5.91,2.15-12.68,1.77-19.15-0.23-3.88-.56-9.65,1.76-13.06C729.19,314.72,730.42,314.59,732.1,316.37Z" transform="translate(-49.73 -98.49)"/><path class="cls-5" d="M690.28,632.2H741.8a0,0,0,0,1,0,0v71.33a5.08,5.08,0,0,1-5.08,5.08H695.35a5.08,5.08,0,0,1-5.08-5.08V632.2a0,0,0,0,1,0,0Z" transform="translate(154.01 -264.56) rotate(15.4)"/><path class="cls-5" d="M446.36,635.75l-32.77-9a8.77,8.77,0,0,1-6.13-10.78l18-65.21,49.68,13.68-18,65.21A8.77,8.77,0,0,1,446.36,635.75Z" transform="translate(-49.73 -98.49)"/><path class="cls-5" d="M738.06,405.46L563,357.24c-13.4-3.69-27.84,2.15-36,14.54l-54.43,83.15h0l-44.63,46.31a15.49,15.49,0,0,0-3.78,6.64l-16,58.24a15.49,15.49,0,0,0,10.68,19l318,90.77A15.49,15.49,0,0,0,756,665.1L771.42,609a15.49,15.49,0,0,0,.41-6.25l-9.46-68-0.91-.25,0.08-96.56C761.54,422.51,752,409.29,738.06,405.46Z" transform="translate(-49.73 -98.49)"/><path class="cls-4" d="M710.61,520.48L521.27,468.33c-9.87-2.72-13.9-15.08-7.88-24.17l40.86-61.67a15,15,0,0,1,16.34-6.55l148.19,40.82c6.32,1.74,10.67,7.73,10.7,14.72l0.29,73C729.81,515.1,720.2,523.12,710.61,520.48Z" transform="translate(-49.73 -98.49)"/><g class="cls-7"><path class="cls-8" d="M729.38,488c-11.25-11.19-23.12-21.75-34.79-32.5-14.62-13.47-28.82-27.43-43.38-41-7.62-7.09-15.21-14.21-22.68-21.45l-58.27-16a14,14,0,0,0-7.53,0l0.25,0.25c7.51,7.37,15.08,14.69,22.61,22,13.48,13.15,26.87,26.41,39.7,40.2S650.21,467.5,663.15,481c12.14,12.7,24.54,25.15,36.82,37.71l10.32,2.84c9.59,2.64,19.2-5.38,19.16-16Z" transform="translate(-49.73 -98.49)"/><path class="cls-8" d="M649,479.68c-13.19-14.07-25.66-28.79-39-42.7s-26.93-27.08-40.62-40.39q-7.29-7.09-14.55-14.22c-0.32.39-.62,0.8-0.91,1.23l-18.86,28.47c3.73,4.08,7.56,8.08,11.23,12.16,21.65,24.1,43.22,48.39,66.81,70.59l69,19C671,502.53,659.85,491.24,649,479.68Z" transform="translate(-49.73 -98.49)"/></g><path class="cls-5" d="M759.21,519.29L770.8,517a9,9,0,0,1,6.12.95l11.9,6.55a9,9,0,0,1,4.68,8.16h0a9,9,0,0,1-7.75,8.71l-15.53,2.25a9,9,0,0,1-4.19-.38L758,540.5a9,9,0,0,1-6.15-8.81l0.1-3.77A9,9,0,0,1,759.21,519.29Z" transform="translate(-49.73 -98.49)"/><path class="cls-9" d="M480.42,442.5l-8.78-7.91a9,9,0,0,0-5.74-2.32l-13.58-.47a9,9,0,0,0-8.2,4.61h0a9,9,0,0,0,2.19,11.45l12.19,9.88a9,9,0,0,0,3.79,1.82l8.32,1.79a9,9,0,0,0,9.79-4.42l1.85-3.29A9,9,0,0,0,480.42,442.5Z" transform="translate(-49.73 -98.49)"/><path class="cls-10" d="M765.66,629.93L756,665.1a15.49,15.49,0,0,1-19.18,10.78l-318-90.77a15.49,15.49,0,0,1-10.68-19l9.74-31Z" transform="translate(-49.73 -98.49)"/><polygon class="cls-11" points="366.51 485.64 415.99 500.02 411.69 515.63 364.91 491.43 366.51 485.64"/><polygon class="cls-11" points="641.53 564.86 691.02 579.24 686.72 594.86 639.94 570.65 641.53 564.86"/><circle class="cls-12" cx="726.6" cy="603.36" r="22.79" transform="translate(-97.77 1045.17) rotate(-74.6)"/><path class="cls-11" d="M732.18,618.76a18.58,18.58,0,0,0,11.26-6.13,13.16,13.16,0,0,1-7.93,9.16,21.27,21.27,0,0,1-4.15,1,21.64,21.64,0,0,1-4.51.39,13.42,13.42,0,0,1-10.32-5.7c0.76,1.09,5.28,1.45,6.41,1.53A36.34,36.34,0,0,0,732.18,618.76Z" transform="translate(-49.73 -98.49)"/><circle class="cls-12" cx="459.42" cy="536.37" r="22.79" transform="matrix(0.27, -0.96, 0.96, 0.27, -229.42, 738.38)"/><path class="cls-11" d="M465,551.77a18.58,18.58,0,0,0,11.26-6.13,13.16,13.16,0,0,1-7.93,9.16,21.28,21.28,0,0,1-4.15,1,21.63,21.63,0,0,1-4.51.39,13.42,13.42,0,0,1-10.32-5.7c0.76,1.09,5.28,1.45,6.41,1.53A36.34,36.34,0,0,0,465,551.77Z" transform="translate(-49.73 -98.49)"/><polygon class="cls-13" points="279.71 152.38 284.52 138.27 281.15 129.53 273.23 128.69 271.73 138.38 269.83 136.97 266.4 137.89 269.1 147.06 270.15 152.49 279.71 152.38"/><path class="cls-14" d="M268.12,328.13c2.66-1.46,5.29-3,8.07-4.35Q288,318.21,299.54,312c4.7-2.51,9.52-5.23,12.68-9.53a35.42,35.42,0,0,0,4.07-8A346.57,346.57,0,0,0,330.85,249c-3.2-1.54-12-5.74-15-2.87a10.2,10.2,0,0,0-2.14,3.62q-3.88,9.3-7.91,18.54c-3,6.88-6.11,13.79-10.46,19.91a7.26,7.26,0,0,1-2,2.1,7.74,7.74,0,0,1-3,.85c-15.8,2.28-25.16-3.6-40.67.28-3.5.84-13.16,11.56-15.34,14.42-1.7,2.24-2.09,5.19-2.25,8-0.22,3.72-.11,7.62,1.6,10.93,2,3.85,6,6.42,10.16,7.49a32.43,32.43,0,0,0,12.92.17A34.28,34.28,0,0,0,268.12,328.13Z" transform="translate(-49.73 -98.49)"/><polygon id="_Path_" data-name="&lt;Path&gt;" class="cls-15" points="518.18 51.99 487.02 144.79 523.23 146.78 520.1 227.91 558.03 131.16 517.51 123.67 518.18 51.99"/><polygon id="_Path_2" data-name="&lt;Path&gt;" class="cls-15" points="616.95 148.67 565.6 183.83 573.9 198.45 535.15 238.25 590.07 203.64 583.25 184.62 616.95 148.67"/><polygon class="cls-3" points="945.43 372.63 945.43 393.32 917.84 482.98 923.14 579.53 910.35 581.89 879.91 465.74 880.96 432.26 893.7 363.98 945.43 372.63"/><polygon class="cls-3" points="923.54 397.13 951.5 591.21 964.48 592.12 971.82 483.34 989.06 379.89 923.54 397.13"/><polygon class="cls-5" points="910.35 581.89 897.19 595.83 900.99 602.88 928.15 589.85 923.14 579.53 910.35 581.89"/><polygon class="cls-5" points="951.5 591.21 935.27 601.41 937.19 609.19 966.74 603.36 964.48 592.12 951.5 591.21"/><path class="cls-15" d="M978,316.81l38.42-9.6s17.45,23.59,26.37,83.28c8.85,59.23,6.65,147.21,6.65,147.21s-114.44-23.36-133.22-27l37-116.07Z" transform="translate(-49.73 -98.49)"/><polygon class="cls-13" points="831.74 284.66 817.55 280.36 819.13 274.22 829.49 275.01 828.89 271.76 840.58 276.92 839.8 283.53 831.74 284.66"/><polygon class="cls-15" points="940.84 232.06 903.68 276.53 837.2 273.85 836.34 287.03 914.13 307.6 971.81 263.4 940.84 232.06"/><path class="cls-13" d="M978.22,263.95c10.38,4.23,23.15-1.28,32.91,4.28,6.35,3.61,9.76,11.39,9.63,18.86A17.91,17.91,0,0,1,1018,297a17.13,17.13,0,0,1-4.87,4.53,24.34,24.34,0,0,1-8.14,3.34,43.91,43.91,0,0,0,2.59,7.51c-5.51.29-10.09,11.6-15.6,11.89-0.17-3.17-1.27-17.36-1.44-20.52a23.49,23.49,0,0,1-4.17-2.09A26.68,26.68,0,0,1,974.58,277C975,272.47,976.62,268.17,978.22,263.95Z" transform="translate(-49.73 -98.49)"/><polygon class="cls-5" points="930.14 169.54 964.28 176.29 962.52 203.46 974.19 199.1 982.72 156.47 936.65 140.44 912.75 145.71 909.77 157.79 923.82 175.7 930.14 169.54"/><polygon class="cls-16" points="874.82 121.13 876.99 106.47 883.29 107.12 884.03 117.49 887.16 116.41 883.78 128.73 877.13 128.94 874.82 121.13"/><polygon class="cls-15" points="942.91 221.3 893.45 191.1 886.32 124.94 873.15 126.03 864.26 206 916.46 256.55 942.91 221.3"/><path class="cls-5" d="M922.75,364.23L847,380.2a3,3,0,0,1-3.58-2.33L817.26,253.75a3,3,0,0,1,2.33-3.58l75.76-16a3,3,0,0,1,3.58,2.33l26.16,124.12A3,3,0,0,1,922.75,364.23Z" transform="translate(-49.73 -98.49)"/><rect class="cls-17" x="833.2" y="247.89" width="74.67" height="113.48" transform="translate(-93.83 87.58) rotate(-11.9)"/><rect class="cls-18" x="879.17" y="365.33" width="8.94" height="2.06" transform="translate(-106.28 91.59) rotate(-11.9)"/><g class="cls-19"><path class="cls-5" d="M885,331.8l-0.62,4.13-12.8-4.71,0.23-1.53h0l-0.82,5.45a5.24,5.24,0,0,0,4.45,6l2.75,0.4a5.31,5.31,0,0,0,6-4.44l0.8-5.26h0Z" transform="translate(-49.73 -98.49)"/><path class="cls-20" d="M871.78,329.69h0l-0.23,1.53,12.8,4.71L885,331.8l-12.5-1.94A4,4,0,0,1,871.78,329.69Z" transform="translate(-49.73 -98.49)"/><path class="cls-21" d="M871.78,329.69h0l-0.23,1.53,12.8,4.71L885,331.8l-12.5-1.94A4,4,0,0,1,871.78,329.69Z" transform="translate(-49.73 -98.49)"/><path class="cls-22" d="M870.26,328.74a4,4,0,0,1-.62-0.78A4,4,0,0,0,870.26,328.74Z" transform="translate(-49.73 -98.49)"/><path class="cls-22" d="M869.67,321.72l-0.55,3.61,0.72-3.83Z" transform="translate(-49.73 -98.49)"/><path class="cls-22" d="M869.46,327.63a4,4,0,0,1-.26-0.72A4,4,0,0,0,869.46,327.63Z" transform="translate(-49.73 -98.49)"/><path class="cls-22" d="M870.95,329.29a4,4,0,0,1-.52-0.39A4,4,0,0,0,870.95,329.29Z" transform="translate(-49.73 -98.49)"/><path class="cls-5" d="M876.47,302.52l-4.25,5.6a4,4,0,0,0-.6,1.14,12.3,12.3,0,0,1,.39,8l3.74,0.54a5.8,5.8,0,0,1-.19-2.56,5.93,5.93,0,0,1,6.73-5,5.84,5.84,0,0,1,4,9l25.79,3.7-5.56-24.62-11.33-1.66a4.05,4.05,0,0,1-2.78-5.93l8.56-17-1.51-6.69a8.82,8.82,0,0,0-5.77,4.7L886,287.38l3.69,4.56Z" transform="translate(-49.73 -98.49)"/><path class="cls-22" d="M872.46,329.86L885,331.8h0l30.21,4.7h0l-42.71-6.64a4,4,0,0,1-1.49-.54,4,4,0,0,0,.79.37h0A4,4,0,0,0,872.46,329.86Z" transform="translate(-49.73 -98.49)"/><path class="cls-4" d="M895.24,296.76l11.33,1.66-2.33-10.33-3.92-3.39c-1.07-.93-2.18-1.83-3.27-2.76l4-7.87,0-.05,0-.14-8.56,17A4.05,4.05,0,0,0,895.24,296.76Z" transform="translate(-49.73 -98.49)"/><path class="cls-23" d="M897,281.94c1.09,0.92,2.2,1.83,3.27,2.76l3.92,3.39L901.05,274l0,0.05Z" transform="translate(-49.73 -98.49)"/><path class="cls-24" d="M869.12,325.33h0a4,4,0,0,0,.08,1.57,4,4,0,0,1-.08-1.57h0Z" transform="translate(-49.73 -98.49)"/><path class="cls-24" d="M871,329.31l0,0Z" transform="translate(-49.73 -98.49)"/><path class="cls-24" d="M870.43,328.91l-0.17-.16Z" transform="translate(-49.73 -98.49)"/><path class="cls-5" d="M872.46,329.86l42.71,6.64-3-13.46-25.79-3.7a5.94,5.94,0,0,1-5.8,2.58,5.87,5.87,0,0,1-4.78-4.1l-3.74-.54a12.31,12.31,0,0,1-2.17,4.22l-0.72,3.83h0a3.94,3.94,0,0,0,.34,2.29q0.08,0.17.18,0.34a4,4,0,0,0,.62.78l0.17,0.16a4,4,0,0,0,.52.39l0,0A4,4,0,0,0,872.46,329.86Z" transform="translate(-49.73 -98.49)"/><path class="cls-10" d="M872.46,329.86l42.71,6.64-3-13.46-25.79-3.7a5.94,5.94,0,0,1-5.8,2.58,5.87,5.87,0,0,1-4.78-4.1l-3.74-.54a12.31,12.31,0,0,1-2.17,4.22l-0.72,3.83h0a3.94,3.94,0,0,0,.34,2.29q0.08,0.17.18,0.34a4,4,0,0,0,.62.78l0.17,0.16a4,4,0,0,0,.52.39l0,0A4,4,0,0,0,872.46,329.86Z" transform="translate(-49.73 -98.49)"/><path class="cls-12" d="M887.26,317a5.86,5.86,0,0,0-5-6.66,5.93,5.93,0,0,0-6.73,5,5.8,5.8,0,0,0,.19,2.56,5.87,5.87,0,0,0,4.78,4.1,5.94,5.94,0,0,0,5.8-2.58A5.83,5.83,0,0,0,887.26,317Zm-3,3.57a5.55,5.55,0,0,1-1,.4,5.66,5.66,0,0,1-1.15.24,3.48,3.48,0,0,1-2.83-1.13,3.62,3.62,0,0,0,1.7.19,9.51,9.51,0,0,0,2.37-.37,4.84,4.84,0,0,0,2.71-1.92A3.4,3.4,0,0,1,884.28,320.54Z" transform="translate(-49.73 -98.49)"/><path class="cls-25" d="M883.33,319.87a9.51,9.51,0,0,1-2.37.37,3.62,3.62,0,0,1-1.7-.19,3.48,3.48,0,0,0,2.83,1.13,5.66,5.66,0,0,0,1.15-.24,5.55,5.55,0,0,0,1-.4,3.4,3.4,0,0,0,1.76-2.59A4.84,4.84,0,0,1,883.33,319.87Z" transform="translate(-49.73 -98.49)"/><path class="cls-21" d="M883.33,319.87a9.51,9.51,0,0,1-2.37.37,3.62,3.62,0,0,1-1.7-.19,3.48,3.48,0,0,0,2.83,1.13,5.66,5.66,0,0,0,1.15-.24,5.55,5.55,0,0,0,1-.4,3.4,3.4,0,0,0,1.76-2.59A4.84,4.84,0,0,1,883.33,319.87Z" transform="translate(-49.73 -98.49)"/><path class="cls-26" d="M847.93,325.32l3.33-2.66,0,0Z" transform="translate(-49.73 -98.49)"/><path class="cls-3" d="M850,306.07c0.4-.32.81-0.61,1.23-0.89a12.5,12.5,0,0,1,18.52.94,12.38,12.38,0,0,1,.8,1.11l5.9-4.71,13.24-10.58L886,287.38l-3.17-3.92a19.13,19.13,0,0,0-19.09-6.59l-12.94,5-1.56,4.16-5.45-.22,0.64-1.46-19.6-9.87,1.43,6.32,11.89,6L829.24,294l8.86,39.22,9.79-7.82a10.06,10.06,0,0,1-1.37-1.39C842.42,318.9,844,310.89,850,306.07Z" transform="translate(-49.73 -98.49)"/><polygon class="cls-4" points="776.55 182.35 779.52 195.47 788.45 188.34 776.55 182.35"/><polygon class="cls-21" points="798.16 226.87 798.21 226.84 798.16 226.87 798.16 226.87"/><path class="cls-26" d="M850.35,321.65a12.3,12.3,0,0,1,.91-16.46c-0.42.28-.83,0.57-1.23,0.89-6,4.82-7.6,12.83-3.5,17.9a10.06,10.06,0,0,0,1.37,1.39l0,0,3.31-2.68A12.53,12.53,0,0,1,850.35,321.65Z" transform="translate(-49.73 -98.49)"/><path class="cls-27" d="M850.35,321.65a12.3,12.3,0,0,1,.91-16.46c-0.42.28-.83,0.57-1.23,0.89-6,4.82-7.6,12.83-3.5,17.9a10.06,10.06,0,0,0,1.37,1.39l0,0,3.31-2.68A12.53,12.53,0,0,1,850.35,321.65Z" transform="translate(-49.73 -98.49)"/><path class="cls-5" d="M872,317.28a12.29,12.29,0,0,0-2.24-11.16,12.5,12.5,0,0,0-18.52-.94,12.3,12.3,0,0,0-.91,16.46,12.53,12.53,0,0,0,.9,1l0,0a12.51,12.51,0,0,0,18.4-.94l0.17-.22A12.31,12.31,0,0,0,872,317.28Zm-5.84.1a7.1,7.1,0,0,1-9.65,2.58,7,7,0,0,1-2.57-9.58,7.1,7.1,0,0,1,9.65-2.58A7,7,0,0,1,866.17,317.39Z" transform="translate(-49.73 -98.49)"/><path class="cls-12" d="M863.61,307.81a7.1,7.1,0,0,0-9.65,2.58,7,7,0,0,0,2.57,9.58,7.1,7.1,0,0,0,9.65-2.58A7,7,0,0,0,863.61,307.81Zm0.71,10.48a6.74,6.74,0,0,1-1.08.89,6.64,6.64,0,0,1-1.14.67,4.1,4.1,0,0,1-3.74-.29,5.8,5.8,0,0,0,3.82-1.1,11.28,11.28,0,0,0,2.11-1.93,4.29,4.29,0,0,0,1.08-1.72A4.12,4.12,0,0,1,864.32,318.29Z" transform="translate(-49.73 -98.49)"/><path class="cls-28" d="M864.28,316.53a11.28,11.28,0,0,1-2.11,1.93,5.8,5.8,0,0,1-3.82,1.1,4.1,4.1,0,0,0,3.74.29,6.64,6.64,0,0,0,1.14-.67,6.74,6.74,0,0,0,1.08-.89,4.12,4.12,0,0,0,1-3.48A4.29,4.29,0,0,1,864.28,316.53Z" transform="translate(-49.73 -98.49)"/><path class="cls-21" d="M864.28,316.53a11.28,11.28,0,0,1-2.11,1.93,5.8,5.8,0,0,1-3.82,1.1,4.1,4.1,0,0,0,3.74.29,6.64,6.64,0,0,0,1.14-.67,6.74,6.74,0,0,0,1.08-.89,4.12,4.12,0,0,0,1-3.48A4.29,4.29,0,0,1,864.28,316.53Z" transform="translate(-49.73 -98.49)"/><path class="cls-3" d="M849.26,286.06l1.56-4.16,2.27-6a31.48,31.48,0,0,1,9.57-13.31c1.12-.92,2-1.64,2.36-1.85,1.11-.71,5.68-1.59,5.68-1.59l1.68-4.06a12.93,12.93,0,0,0-8.38,1.13,41.49,41.49,0,0,0-7.41,5.64,23.17,23.17,0,0,0-5.66,7.83l-6.49,14.73-0.64,1.46Z" transform="translate(-49.73 -98.49)"/></g><path class="cls-29" d="M989.15,109.23c-33.41,7.23-50.37-8.29-52.66-10.58,0,0,0-.23-0.14-0.14-0.09-.09-0.14.14-0.14,0.14-2.29,2.29-19.25,17.81-52.66,10.58,0,0-5.13,60.11,14.35,84.63,20.8,26.19,38.36,34.11,38.45,34s17.8-7.7,38.45-34C994.13,169.21,989.15,109.23,989.15,109.23Z" transform="translate(-49.73 -98.49)"/><path class="cls-29" d="M984.27,115.41c-30.32,6.44-45.71-7.38-47.78-9.42,0,0,0-.2-0.12-0.12-0.08-.08-0.12.12-0.12,0.12-2.07,2-17.46,15.86-47.78,9.42,0,0-4.65,53.51,13,75.35,18.88,23.32,34.79,31.8,34.87,31.74s16.16-8.29,34.9-31.74C988.78,168.82,984.27,115.41,984.27,115.41Z" transform="translate(-49.73 -98.49)"/><path class="cls-18" d="M956,172.71l0,3.21a2.38,2.38,0,0,0,2.35,2.39l2.51,0a2.36,2.36,0,0,0,2.28-2.45l0-3.23a2.05,2.05,0,0,1-.6.09Z" transform="translate(-49.73 -98.49)"/><path class="cls-18" d="M916.28,172.81l0.06,3.63a2.38,2.38,0,0,0,2.35,2.39l2.51,0a2.36,2.36,0,0,0,2.28-2.45l-0.05-3.52-6.76,0A2.06,2.06,0,0,1,916.28,172.81Z" transform="translate(-49.73 -98.49)"/><path class="cls-18" d="M961.75,151.53l2-.94a1.32,1.32,0,0,0,.69-1.52,1.29,1.29,0,0,0-.94-0.95l-1.84-.43a1.21,1.21,0,0,0-.85.11l-1.17.63-3.14-11.26a4.63,4.63,0,0,0-4.39-3.57l-25.17.33a4.57,4.57,0,0,0-4.22,3.47l-3.42,11.73,0,0-1.48-.75a1.21,1.21,0,0,0-.85-0.09l-1.83.48a1.28,1.28,0,0,0-.91,1,1.33,1.33,0,0,0,.74,1.5l2,0.88a1.21,1.21,0,0,0,.58.1l0.68,0-3.63,7.23a2.32,2.32,0,0,0-.24,1.07l0.13,8.75a2.22,2.22,0,0,0,1.78,2.18,2.06,2.06,0,0,0,.38,0l6.76,0,32.54-.11,6.55,0a2.06,2.06,0,0,0,.6-0.09,2.22,2.22,0,0,0,1.54-2.18l-0.13-8.42a2.33,2.33,0,0,0-.19-0.89l-3.47-8.07,0.38,0A1.21,1.21,0,0,0,961.75,151.53Zm-41.59,14.78a3.3,3.3,0,1,1,3.11-3.34A3.24,3.24,0,0,1,920.16,166.31Zm32.74-15.94-27.22.45a2,2,0,0,1-2-2.66l3.09-9a2.07,2.07,0,0,1,1.93-1.38l21.31-.35a2,2,0,0,1,2,1.41l2.83,8.87A2,2,0,0,1,952.9,150.37Zm8.53,11.18a3.16,3.16,0,1,1-3.21-3.26A3.22,3.22,0,0,1,961.43,161.55Z" transform="translate(-49.73 -98.49)"/><polygon class="cls-30" points="252.14 299.95 247.74 308.77 261.48 317.75 270.37 312.56 270.59 303.69 262.78 303.91 263.6 302.25 266.11 301.44 265.25 298.94 252.14 299.95"/><path class="cls-31" d="M218.94,296.9a19.51,19.51,0,0,1,7.09-6.57,11.09,11.09,0,0,1,5-1.42,11.61,11.61,0,0,1,5.28,1.42c21.16,10.68,22.13,45.26,22.31,65.54,0.12,13,18.12,20.13,27.67,26.9,4.4,3.12,18.85,10.48,18.9,15.35,0,1-5.65,12-5.44,12.08l-37-14.46c-9.12-3.56-18.73-5.48-27.78-9.39-3.43-1.48-6.94-3.25-9.1-6.29-1.68-2.36-2.38-5.26-3-8.08a371.42,371.42,0,0,1-7.42-42.44c-0.84-7.18-1.82-14.48-.63-21.61A28.5,28.5,0,0,1,218.94,296.9Z" transform="translate(-49.73 -98.49)"/><path class="cls-14" d="M200.3,288l-0.55.05c-4.76.46-9.56,2.15-12.9,5.56a25.4,25.4,0,0,0-4.09,6c-3,5.73-5.19,11.77-7.48,17.82a366.65,366.65,0,0,0-15.8,54.11c-1.87,8.86-13,109.79-6.39,109.36q60.22-3.9,120.6-4.08c2.67-52.32,5.09-106.38-13.38-155.4-2.87-7.62-6.32-15.19-11.73-21.27C237,287.17,216.51,286.52,200.3,288Z" transform="translate(-49.73 -98.49)"/><g id="_Group_" data-name="&lt;Group&gt;"><polygon class="cls-5" points="178.51 582.32 178.51 589.24 196.26 598.11 205.13 589.24 196.26 580.36 195.11 580.36 194.83 582.32 178.51 582.32"/></g><g id="_Group_2" data-name="&lt;Group&gt;"><polygon class="cls-5" points="134.8 580.36 133.58 580.36 124.7 589.24 133.58 598.11 151.32 589.24 151.32 582.32 135.01 582.32 134.8 580.36"/></g><path class="cls-32" d="M265.26,469.61c-10-2.92-20.82-7.43-31.26-7.34-1.11,0-2.22,0-3.33.07l-2.84.22c-7,.56-14.85,1.31-23.06,2.31l-1.21.15c-10.49,2.28-17.31,3.18-21.73,3.41a69,69,0,0,0-12.29,4.45,53.17,53.17,0,0,0-5.47,3.1L164,487.38l20,193.68h16.4v2h0.09l18-129.92,0.07-.73L228.53,683h0.09v-2H245.1L266,535.58Z" transform="translate(-49.73 -98.49)"/><path class="cls-5" d="M231.54,236.93a30.58,30.58,0,0,1,2.94,13.79c0,1.26,0,2.72,1,3.52s0,2.55.87,1.53,3.82-4.58,4-5.91a50.65,50.65,0,0,0,.47-9.47c-0.12-2.75-.53-5.64-2.18-7.82a15.26,15.26,0,0,0-3.66-3.15,19.38,19.38,0,0,0-6.18-3.22c-3.9-1-6.39.36-3.06,3.33A24.41,24.41,0,0,1,231.54,236.93Z" transform="translate(-49.73 -98.49)"/><path class="cls-13" d="M204.34,289.4l16.18,2.4a101.54,101.54,0,0,0,2.18-14.37c4.76-.58,10.39-1.84,12.26-6.78a16.77,16.77,0,0,0,.79-5L237,244.79a20.54,20.54,0,0,0-.43-7.17c-1.22-4-4.72-6.53-8.2-8.18-8.86-4.23-19.42-4.63-28,.27a15.37,15.37,0,0,0-5.89,5.44c-2.17,3.72-2.16,8.46-2.08,12.89l0.23,12.27c0.09,4.71.51,10.14,4,12.8,1.83,1.41,4.28,1.78,5.83,3.57C205.07,279.84,203.48,285.11,204.34,289.4Z" transform="translate(-49.73 -98.49)"/><path class="cls-5" d="M237.55,263c0-1.3-.37-5.11-2.41-2.83a3.94,3.94,0,0,0-.77,2.3,8.93,8.93,0,0,1-.37,2.45,4.25,4.25,0,0,1-4.4,2.35,4.12,4.12,0,0,1-2-.59,6.31,6.31,0,0,1-1.45-1.5L223,261.09c-1.8-2.33-5.65-1.57-8.24-1.36a16.36,16.36,0,0,0-8.54,2.86l-0.76.58a8.9,8.9,0,0,1-1.92,1.26c-2.35,1-5.14-.32-6.64-2.53-0.69-1-1.31-2.3-2.45-2.53a2.35,2.35,0,0,0-2.3,1.26,6.93,6.93,0,0,0-.79,2.82,21.36,21.36,0,0,0,1.26,10.59c3,7.1,9.36,8.28,15.83,8.47l7.67,0.22c4.68,0.13,9.62.19,13.7-2.36,3.59-2.25,5.87-6.29,6.93-10.58A27.35,27.35,0,0,0,237.55,263ZM220,271.91a8.82,8.82,0,0,1-8,.52c-1.15-.42-0.55-2.38.6-2a7.09,7.09,0,0,0,6.5-.38C220.17,269.43,221,271.26,220,271.91Z" transform="translate(-49.73 -98.49)"/><path class="cls-5" d="M240.44,225.29a37.63,37.63,0,0,0,1.26-5.09,9.87,9.87,0,0,1-5,.17l0.14-3c0-.83-11-2-11.92-2.12-8.4-1.14-16.07-2.22-23.93,2a23.33,23.33,0,0,0-12.57,16.83,36.27,36.27,0,0,0,4.39,23.18c0.07-1.94-.79-6.59-0.25-8.41a16.67,16.67,0,0,1,2-5.19,21.6,21.6,0,0,1,7.92-7.64,41.16,41.16,0,0,1,16.71-4.77c5.3-.47,11.74-0.82,16.86.87,2.46,0.81,2.84,1.47,4.49-1a44,44,0,0,0,2.46-5.62Z" transform="translate(-49.73 -98.49)"/><path class="cls-33" d="M53.61,567.5L68,530.07l0.79-.37,0.11-11.37,0.55-60c0.16-17.59-5.2-45,14.08-54.22l183.25-87.55c20.35-9.72,44.78-6.25,62.76,8.94l62.59,52.87,3.06-1.43,70.63-10A69.6,69.6,0,0,1,528,406.52l17.22,36L79.92,664.86l-24.5-51.28A58.34,58.34,0,0,1,53.61,567.5Z" transform="translate(-49.73 -98.49)"/><path class="cls-4" d="M218.2,451.94L95.93,510.36,91,428.7a9.74,9.74,0,0,1,5.4-9.47l86.42-41.29Z" transform="translate(-49.73 -98.49)"/><path class="cls-4" d="M203.75,367.95l70-33.46c14.84-7.09,32.65-4.55,45.76,6.52l47.27,39.93L239.11,442Z" transform="translate(-49.73 -98.49)"/><g class="cls-34"><path class="cls-35" d="M95.57,446.85l-3.63,4.94L90.6,429.45A9.74,9.74,0,0,1,96,420l29.94-14.3C115.9,419.47,105.68,433.11,95.57,446.85Z" transform="translate(-49.73 -98.49)"/><path class="cls-35" d="M101,464.3c16.64-22.87,33.66-47.92,49.87-71.09l28.3-13c-11.36,25.71-28.67,52-43.85,75.48-9.12,14.11-18.72,27.92-28.94,41.26-3.35,4.37-7,8.63-10.66,12.92l-2.12-35.35Q97.28,469.42,101,464.3Z" transform="translate(-49.73 -98.49)"/><path class="cls-35" d="M247,401.7c6.52-10.61,13.62-20.91,20.86-31s14.81-20.59,23.08-30.12c2.73-3.14,5.54-6.2,8.34-9.26A44.24,44.24,0,0,1,319.55,341l0.46,0.39c-7,12.43-14.19,24.81-21.13,37.26-10.26,18.43-23.41,34.95-35.91,51.9L239.11,442l-6.41-13.41C237.44,419.59,241.64,410.34,247,401.7Z" transform="translate(-49.73 -98.49)"/></g><path class="cls-21" d="M369.07,526.72a37,37,0,0,1-3.69-6.12c-10.29-21.53,2-48.83,27.36-61a57.14,57.14,0,0,1,30-5.51c-14.09,10.78-24.15,25.2-30.51,40.84a78.13,78.13,0,0,0-5.66,23.25Z" transform="translate(-49.73 -98.49)"/><path class="cls-21" d="M128.14,641.83a37.88,37.88,0,0,1-3.67-6.13c-10.29-21.53,1.47-48.6,26.27-60.45A54.78,54.78,0,0,1,180.15,570c-13.72,10.6-23.45,24.87-29.55,40.38a77.8,77.8,0,0,0-5.33,23.09Z" transform="translate(-49.73 -98.49)"/><circle class="cls-5" cx="421.79" cy="495.99" r="45.33" transform="translate(-222.34 131.81) rotate(-25.54)"/><circle class="cls-12" cx="421.79" cy="495.99" r="25.73" transform="translate(-278.19 364.57) rotate(-46.72)"/><path class="cls-21" d="M425.44,514.11c-4.6,1.78-9.81,2.35-14.46.7A14.86,14.86,0,0,0,424,519a24,24,0,0,0,4.61-1.42,24.42,24.42,0,0,0,4.58-2.27,15.14,15.14,0,0,0,6.6-11.55c-0.09,1.49-4.25,4.5-5.28,5.24A41,41,0,0,1,425.44,514.11Z" transform="translate(-49.73 -98.49)"/><circle class="cls-5" cx="180.09" cy="611.47" r="45.33" transform="translate(-295.74 38.89) rotate(-25.54)"/><circle class="cls-12" cx="180.09" cy="611.47" r="25.73" transform="translate(-438.27 224.91) rotate(-46.72)"/><path class="cls-21" d="M183.74,629.59c-4.6,1.78-9.81,2.35-14.46.7a14.86,14.86,0,0,0,13,4.18,24,24,0,0,0,4.61-1.42,24.42,24.42,0,0,0,4.58-2.27,15.14,15.14,0,0,0,6.6-11.55c-0.09,1.49-4.25,4.5-5.28,5.24A41,41,0,0,1,183.74,629.59Z" transform="translate(-49.73 -98.49)"/><rect class="cls-36" x="260.64" y="452.04" width="24.65" height="10.6" rx="3.67" ry="3.67" transform="translate(666.69 653.83) rotate(154.46)"/><polygon class="cls-3" points="349.36 297.66 387.92 261.92 405.78 281.2 418.48 240.76 447.63 256.75 455.63 242.18 415.19 229.48 399.2 258.63 384.63 250.64 334.78 289.66 349.36 297.66"/><polygon class="cls-13" points="128 321.46 118.68 324.68 122.21 340.7 132.19 343.22 138.55 337.04 132.82 331.73 134.57 331.12 136.93 332.3 138.06 329.92 128 321.46"/><path class="cls-14" d="M189.57,289.38a19.51,19.51,0,0,1,9.67.27,11.09,11.09,0,0,1,4.56,2.48,11.61,11.61,0,0,1,2.78,4.71c7.63,22.44-15.87,47.81-29.94,62.43-9,9.35-1.15,27.06.93,38.58,1,5.3,6.13,20.67,2.75,24.19-0.72.75-12.43,4.62-12.34,4.82l-16.34-36.26c-4-8.93-9.54-17-13.27-26.15-1.41-3.46-2.68-7.18-2.1-10.87,0.45-2.86,2-5.42,3.48-7.9a371.37,371.37,0,0,1,24.41-35.51c4.43-5.72,8.83-11.61,14.67-15.88A28.5,28.5,0,0,1,189.57,289.38Z" transform="translate(-49.73 -98.49)"/><path class="cls-3" d="M144.9,249.14c-1.35-6,1.83-11.23,7.47-12.51,6-1.35,10.77,2.11,12.12,8.08,1.31,5.81-1.49,11.16-7.47,12.51C151.21,258.54,146.21,255,144.9,249.14Zm-1.21-24.68-20.32-79.18,15.94-3.6L155,221.91Z" transform="translate(-49.73 -98.49)"/></svg>