<svg xmlns="http://www.w3.org/2000/svg" viewBox="0 0 712.48 202.01"><defs><style>.cls-1{isolation:isolate;}.cls-2,.cls-24{fill:#262320;}.cls-2{opacity:0.5;}.cls-2,.cls-24,.cls-9{mix-blend-mode:multiply;}.cls-3{fill:#f6f6f2;}.cls-4{fill:#ddddd0;}.cls-5{fill:#6b685b;}.cls-6{fill:#caec58;}.cls-7{fill:#78d5f9;}.cls-8{fill:#9ebd44;}.cls-9{opacity:0.4;}.cls-10,.cls-11,.cls-12,.cls-13,.cls-14{fill:none;stroke:#262320;stroke-linecap:round;stroke-linejoin:round;}.cls-11{stroke-dasharray:5.65 5.65;}.cls-12{stroke-dasharray:5.78 5.78;}.cls-13{stroke-dasharray:5.77 5.77;}.cls-14{stroke-dasharray:5.53 5.53;}.cls-15{fill:#cbb08f;}.cls-16{fill:#f5e4bb;}.cls-17{fill:#bd3d44;}.cls-18{fill:#ef4e55;}.cls-19{fill:#57b6d3;}.cls-20{fill:#84847f;}.cls-21{fill:#a3a39f;}.cls-22{fill:#e5e5e3;}.cls-23{fill:#fff;}.cls-24{opacity:0.3;}</style></defs><title>map</title><g class="cls-1"><g id="Objects"><polygon class="cls-2" points="249.19 202.01 635.26 194.58 712.48 97.96 381.31 125.87 249.19 202.01"/><polygon class="cls-2" points="249.19 202.01 144.49 162.59 125.87 134.72 139.25 127.47 249.19 202.01"/><polygon class="cls-3" points="101.05 112.59 249.19 202.01 381.31 125.87 244.14 40.56 101.05 112.59"/><polygon class="cls-4" points="249.19 202.01 504.86 168.84 592.37 80.54 381.31 125.87 249.19 202.01"/><polygon class="cls-3" points="504.86 168.84 635.26 194.58 712.48 97.96 592.37 80.54 504.86 168.84"/><polygon class="cls-4" points="101.05 112.59 64.15 108.45 182.94 42.47 244.14 40.56 101.05 112.59"/><polygon class="cls-3" points="64.15 108.45 74.17 52.16 191.66 0 182.94 42.47 64.15 108.45"/><polygon class="cls-5" points="74.17 52.16 49.59 96.49 64.15 108.45 74.17 52.16"/><polygon class="cls-6" points="79.14 49.96 70.76 104.78 177.37 45.57 186.5 2.29 79.14 49.96"/><path class="cls-7" d="M113.54,222.38c1.85-3.55,4.15-6.84,6-10.4s3.18-7.5,2.9-11.49a17.44,17.44,0,0,0-.3-2l-8,3.57a11.72,11.72,0,0,1,1.14,9.65,5.1,5.1,0,0,1-2.3,3,6.51,6.51,0,0,1-3.12.42c-2.57-.08-5.28-0.19-7.46-1.55-1.64-1-2.81-2.63-4.22-4l-0.25-.22L97,214.81a12.46,12.46,0,0,1,4.13,1.63c3.23,1.93,6.15,5,6.35,8.8a17.13,17.13,0,0,1-1.09,5.73,80.54,80.54,0,0,0-3.31,25.51l6.63-3.68a26.39,26.39,0,0,1-1.41-8.95A46.26,46.26,0,0,1,113.54,222.38Z" transform="translate(-18.76 -159.25)"/><polygon class="cls-8" points="70.76 104.78 110.19 107.99 237.01 44.15 177.37 45.57 70.76 104.78"/><polygon class="cls-6" points="110.19 107.99 258.7 196.54 374.79 129.63 237.01 44.15 110.19 107.99"/><path class="cls-7" d="M162.08,250.56s26.78,26.14,61.69-3.65S299,230.25,299,230.25l5.64,3.5s-27.51-4.81-35.08,1.57,9.61,15.5,18.8,11.41,30.29-4.28,30.29-4.28l7.25,4.5s-19.42,1.27-32.64,6.67-28.3.1-35-11.5c0,0-9.32-7.12-22,6.19s-30.79,21.75-57.94,18.93c0,0-12.81-1.89-18.4-8.6,0,0-3.28-3.47-11.21-1.39Z" transform="translate(-18.76 -159.25)"/><path class="cls-7" d="M283.73,349.47c6.93-4.26,14.1-8.77,18.41-15.67s4.78-16.93-1.18-22.47c-4.41-4.09-11.07-4.72-17-3.77s-11.61,3.22-17.55,4.15a39.71,39.71,0,0,1-24.49-4.1c-5.68-3-10.62-7.39-16.57-9.83-9.59-3.92-23.32-1.73-30.44,6.25a13.27,13.27,0,0,0-1.32,1.74l81.84,48.8,0.44-.27Z" transform="translate(-18.76 -159.25)"/><polygon class="cls-8" points="258.7 196.54 511.78 161.85 588.31 84.64 374.79 129.63 258.7 196.54"/><polygon class="cls-6" points="511.78 161.85 628.07 184.46 698.06 102 588.31 84.64 511.78 161.85"/><g class="cls-9"><path class="cls-10" d="M151.82,188a9.24,9.24,0,0,1,2.5,1.31" transform="translate(-18.76 -159.25)"/><path class="cls-11" d="M157.55,193.82c2,5.51.2,13.34-3.42,18.6-4.27,6.22-10.24,12.21-12.16,19.16" transform="translate(-18.76 -159.25)"/><path class="cls-10" d="M141.45,234.35a15.75,15.75,0,0,0,0,2.83l2.5-1.34" transform="translate(-18.76 -159.25)"/><path class="cls-12" d="M149,233.12l27.2-14.53c4.27-2.28,8.75-4.62,13.59-4.73s10.12,2.76,11,7.52c1,5.12-3.11,9.62-5.45,14.28-5.73,11.41-.37,26,9.48,34.18s23,11,35.75,11.92c26.71,2,53.52-2.95,80.28-1.76,10.58,0.47,23,3.32,26.91,13.18,2.72,7-.08,14.48-4.27,21" transform="translate(-18.76 -159.25)"/><path class="cls-10" d="M341.9,316.51c-0.56.77-1.13,1.53-1.71,2.26a18,18,0,0,0,1.82,2.17" transform="translate(-18.76 -159.25)"/><path class="cls-13" d="M346.58,324.43c4.78,2.74,10.66,4,16.21,4.83a220.35,220.35,0,0,0,153.06-34.31c17.21-11.48,35.8-26.15,55.7-24.63" transform="translate(-18.76 -159.25)"/><path class="cls-10" d="M574.42,270.64q1.39,0.22,2.78.54,0.11,1.42.3,2.82" transform="translate(-18.76 -159.25)"/><path class="cls-14" d="M578.58,279.43c5.37,20.72,24.34,37.48,45.73,40.86,11.35,1.8,23.56.1,33.06-6.36s15.76-18.12,14.18-29.5-12-21.38-23.47-21c-9.58.35-18.1,9-18.74,18.22" transform="translate(-18.76 -159.25)"/><path class="cls-10" d="M629.39,284.46a15.13,15.13,0,0,0,.56,2.77" transform="translate(-18.76 -159.25)"/></g><path class="cls-15" d="M393.81,305.48c2,3.37,5.92,5.3,9.82,5.75a29,29,0,0,0,11.6-1.53c3.64-1.1,7.34-2.48,11.12-2.09a35.64,35.64,0,0,1,5.58,1.34c10,2.7,20.74,1.21,30.39-2.47S480.67,297,489,291c7.29-5.27,14.46-10.81,22.54-14.75,9.7-4.73,20.38-7,30.94-9.21,4.92-1,9.89-2.07,14.92-2.06,2.87,0,5.76.36,8.59-.11,5.64-.93,10.32-5,13.61-9.65a56,56,0,0,0,3.76-6.3l-189.87,40-1.82,1c0.1,1.64.18,3.28,0.17,4.88C391.89,298.47,391.93,302.34,393.81,305.48Z" transform="translate(-18.76 -159.25)"/><path class="cls-16" d="M405.8,303.53c10.9,5.9,23.94-8.86,35.71-5,1.69,0.56,3.24,1.49,4.93,2,8.47,2.77,16.64-4.26,23.41-10.05,9.76-8.36,20.92-15.28,33.23-19,12.85-3.83,26.49-4,39.6-6.81,9.82-2.09,19.84-6.12,26.88-13L399.41,287.65a18.09,18.09,0,0,0-.22,1.8C398.83,294.91,401,300.92,405.8,303.53Z" transform="translate(-18.76 -159.25)"/><path class="cls-17" d="M295.54,248.86l10,2.16s23.37-19.2,25-46.92c0,0,3.81-30.14-30-29.32,0,0,20.06,6.4,19,23.5s-23.55,46-23.55,46Z" transform="translate(-18.76 -159.25)"/><path class="cls-17" d="M297.42,184.22s-12.89,10.43-2.69,24l-11.09-.35-1.57-15.16,3.25-9.13,4.64-1.71S295.63,180.31,297.42,184.22Z" transform="translate(-18.76 -159.25)"/><path class="cls-18" d="M300.55,174.78c-5.26-.74-24.36-1.09-27.47,22.75s22.46,51.33,22.46,51.33,23.79-19,28.51-44S305.81,175.51,300.55,174.78Zm-4.78,33.75c-5.93-.66-10.12-6.65-9.37-13.36s6.16-11.63,12.09-11,10.12,6.65,9.37,13.36S301.69,209.19,295.77,208.52Z" transform="translate(-18.76 -159.25)"/><path class="cls-17" d="M600.88,298.72l10,2.16s23.37-19.2,25-46.92c0,0,3.81-30.14-30-29.32,0,0,20.06,6.4,19,23.5s-23.55,46-23.55,46Z" transform="translate(-18.76 -159.25)"/><path class="cls-17" d="M602.76,234.08s-12.89,10.43-2.69,24L589,257.77l-1.57-15.16,3.25-9.13,4.64-1.71S601,230.17,602.76,234.08Z" transform="translate(-18.76 -159.25)"/><path class="cls-18" d="M605.89,224.63c-5.26-.74-24.36-1.09-27.47,22.75s22.46,51.33,22.46,51.33,23.79-19,28.51-44S611.15,225.37,605.89,224.63Zm-4.78,33.75c-5.93-.66-10.12-6.65-9.37-13.36s6.16-11.63,12.09-11,10.12,6.65,9.37,13.36S607,259,601.11,258.38Z" transform="translate(-18.76 -159.25)"/><path class="cls-19" d="M103.11,256.48s18.25,9.45,45.67.78l13.3-6.7s-28.86,11.1-52.34,2.24Z" transform="translate(-18.76 -159.25)"/><polygon class="cls-20" points="377.17 64.59 377.39 51.07 383.95 51.07 377.17 64.59"/><polygon class="cls-21" points="436.15 39.73 379.21 52.69 377.17 64.59 436.15 39.73"/><polygon class="cls-22" points="436.15 39.73 366.18 41.09 379.21 52.69 436.15 39.73"/><polygon class="cls-3" points="379.21 52.69 436.15 39.73 407.68 62.41 379.21 52.69"/><path class="cls-23" d="M390.31,226.06A0.57,0.57,0,0,1,390,225l1.41-.76a0.57,0.57,0,1,1,.56,1q-0.72.4-1.44,0.77A0.57,0.57,0,0,1,390.31,226.06Z" transform="translate(-18.76 -159.25)"/><path class="cls-23" d="M239.55,217.66a0.57,0.57,0,0,0-.84.78,23.46,23.46,0,0,0,2.45,2.25,0.57,0.57,0,1,0,.72-0.89A22.29,22.29,0,0,1,239.55,217.66Z" transform="translate(-18.76 -159.25)"/><path class="cls-23" d="M241.31,213.84a0.57,0.57,0,0,0,.26-1.08q-1.43-.74-2.83-1.54a0.57,0.57,0,1,0-.57,1q1.42,0.81,2.87,1.57A0.57,0.57,0,0,0,241.31,213.84Z" transform="translate(-18.76 -159.25)"/><path class="cls-23" d="M236.47,212.37a0.57,0.57,0,0,0-1.11.26,11,11,0,0,0,1.32,3.14,0.57,0.57,0,1,0,1-.59A9.9,9.9,0,0,1,236.47,212.37Z" transform="translate(-18.76 -159.25)"/><path class="cls-23" d="M235.69,210.61a41.23,41.23,0,0,1,.65-1.25,7.92,7.92,0,0,1,1-2.83,0.57,0.57,0,1,0-1-.58,9.07,9.07,0,0,0-1.13,3.11l-1.46-1-0.46-.31a0.57,0.57,0,1,0-.65.94l0.47,0.32q1.12,0.76,2.26,1.48A0.57,0.57,0,0,0,235.69,210.61Z" transform="translate(-18.76 -159.25)"/><path class="cls-23" d="M265.28,229.86q-1.58-.34-3.14-0.74a0.57,0.57,0,1,0-.28,1.11q1.58,0.4,3.18.75h0.12A0.57,0.57,0,0,0,265.28,229.86Z" transform="translate(-18.76 -159.25)"/><path class="cls-23" d="M213.76,190.88a0.57,0.57,0,1,0-.79.83l2.35,2.24a0.57,0.57,0,0,0,.79-0.83Z" transform="translate(-18.76 -159.25)"/><path class="cls-23" d="M223.23,199.72a0.57,0.57,0,1,0-.76.85q1.22,1.09,2.45,2.14a0.57,0.57,0,1,0,.74-0.87Q224.44,200.8,223.23,199.72Z" transform="translate(-18.76 -159.25)"/><path class="cls-23" d="M228.15,203.91a0.57,0.57,0,0,0-.72.89q1.27,1,2.57,2a0.57,0.57,0,1,0,.69-0.91Q229.41,204.92,228.15,203.91Z" transform="translate(-18.76 -159.25)"/><path class="cls-23" d="M218.47,195.34a0.57,0.57,0,0,0-.78.83l2.38,2.22a0.57,0.57,0,1,0,.78-0.84Z" transform="translate(-18.76 -159.25)"/><path class="cls-23" d="M259,228.27q-1.54-.46-3.06-1a0.57,0.57,0,0,0-.38,1.08c1,0.35,2,.69,3.11,1l0.16,0A0.57,0.57,0,0,0,259,228.27Z" transform="translate(-18.76 -159.25)"/><path class="cls-23" d="M247.19,223.35c-0.94-.53-1.86-1.1-2.73-1.68a0.57,0.57,0,1,0-.63,1c0.89,0.6,1.83,1.18,2.8,1.72A0.57,0.57,0,1,0,247.19,223.35Z" transform="translate(-18.76 -159.25)"/><path class="cls-23" d="M259.9,195.6q-1.6.3-3.19,0.63a0.57,0.57,0,0,0,.12,1.13h0.12q1.58-.33,3.17-0.62A0.57,0.57,0,1,0,259.9,195.6Z" transform="translate(-18.76 -159.25)"/><path class="cls-23" d="M253.53,196.92q-1.59.36-3.17,0.75a0.57,0.57,0,0,0,.14,1.13l0.14,0q1.57-.39,3.15-0.75A0.57,0.57,0,0,0,253.53,196.92Z" transform="translate(-18.76 -159.25)"/><path class="cls-23" d="M259.59,219.7q-1.56-.42-3.1-0.89a0.57,0.57,0,0,0-.33,1.09q1.56,0.48,3.14.9l0.15,0A0.57,0.57,0,0,0,259.59,219.7Z" transform="translate(-18.76 -159.25)"/><path class="cls-23" d="M247.19,198.57c-1.08.36-2.12,0.76-3.08,1.19a0.57,0.57,0,0,0,.23,1.09,0.56,0.56,0,0,0,.23,0c0.93-.41,1.93-0.8,3-1.15A0.57,0.57,0,0,0,247.19,198.57Z" transform="translate(-18.76 -159.25)"/><path class="cls-23" d="M247.4,215.51q-1.48-.63-2.94-1.32a0.57,0.57,0,0,0-.49,1q1.48,0.7,3,1.34A0.57,0.57,0,0,0,247.4,215.51Z" transform="translate(-18.76 -159.25)"/><path class="cls-23" d="M253.42,217.81q-1.53-.52-3-1.1a0.57,0.57,0,0,0-.41,1.07q1.52,0.58,3.07,1.11a0.59,0.59,0,0,0,.19,0A0.57,0.57,0,0,0,253.42,217.81Z" transform="translate(-18.76 -159.25)"/><path class="cls-23" d="M253,226.14c-1-.41-2-0.85-2.93-1.3a0.57,0.57,0,1,0-.5,1c1,0.46,2,.91,3,1.33a0.56,0.56,0,0,0,.22,0A0.57,0.57,0,0,0,253,226.14Z" transform="translate(-18.76 -159.25)"/><path class="cls-23" d="M209,186.43a0.57,0.57,0,1,0-.78.84l2.37,2.21a0.57,0.57,0,0,0,.78-0.83Z" transform="translate(-18.76 -159.25)"/><path class="cls-23" d="M129.52,179.74c-0.82.72-1.63,1.47-2.4,2.24a0.57,0.57,0,0,0,.81.81c0.75-.75,1.54-1.48,2.34-2.19A0.57,0.57,0,1,0,129.52,179.74Z" transform="translate(-18.76 -159.25)"/><path class="cls-23" d="M140.38,172.44c-1,.49-1.94,1-2.88,1.57a0.57,0.57,0,0,0,.58,1c0.92-.54,1.87-1.05,2.82-1.53A0.57,0.57,0,0,0,140.38,172.44Z" transform="translate(-18.76 -159.25)"/><path class="cls-23" d="M134.72,175.75c-0.91.61-1.8,1.25-2.67,1.91a0.57,0.57,0,1,0,.69.91c0.84-.65,1.72-1.27,2.61-1.87A0.57,0.57,0,1,0,134.72,175.75Z" transform="translate(-18.76 -159.25)"/><path class="cls-23" d="M146.39,169.83c-1,.38-2,0.79-3,1.22a0.57,0.57,0,1,0,.46,1c1-.42,2-0.82,3-1.19A0.57,0.57,0,1,0,146.39,169.83Z" transform="translate(-18.76 -159.25)"/><path class="cls-23" d="M238.89,204.31a0.57,0.57,0,0,0,.39-0.15,16.09,16.09,0,0,1,2.5-1.88,0.57,0.57,0,1,0-.6-1,17.23,17.23,0,0,0-2.68,2A0.57,0.57,0,0,0,238.89,204.31Z" transform="translate(-18.76 -159.25)"/><path class="cls-23" d="M345.91,203.62a12.91,12.91,0,0,1,2.45,1.89,0.57,0.57,0,1,0,.81-0.81,14.05,14.05,0,0,0-2.67-2.06A0.57,0.57,0,0,0,345.91,203.62Z" transform="translate(-18.76 -159.25)"/><path class="cls-23" d="M333.08,199.32q1.56,0.41,3.12.86l0.16,0a0.57,0.57,0,0,0,.16-1.12q-1.57-.45-3.14-0.86A0.57,0.57,0,1,0,333.08,199.32Z" transform="translate(-18.76 -159.25)"/><path class="cls-23" d="M152.67,167.93c-1.06.25-2.12,0.54-3.16,0.86a0.57,0.57,0,0,0,.17,1.12l0.17,0c1-.31,2.06-0.59,3.1-0.84A0.57,0.57,0,1,0,152.67,167.93Z" transform="translate(-18.76 -159.25)"/><path class="cls-23" d="M204.15,182.1a0.57,0.57,0,0,0-.74.87q1.23,1,2.44,2.12a0.57,0.57,0,0,0,.76-0.85Q205.39,183.16,204.15,182.1Z" transform="translate(-18.76 -159.25)"/><path class="cls-23" d="M193.65,174.35a0.57,0.57,0,1,0-.6,1c0.89,0.55,1.79,1.14,2.7,1.75a0.57,0.57,0,0,0,.65-0.94C195.47,175.5,194.55,174.9,193.65,174.35Z" transform="translate(-18.76 -159.25)"/><path class="cls-23" d="M159.11,166.77c-1.08.13-2.17,0.3-3.24,0.49a0.57,0.57,0,0,0,.1,1.13h0.1c1-.19,2.12-0.35,3.18-0.48A0.57,0.57,0,0,0,159.11,166.77Z" transform="translate(-18.76 -159.25)"/><path class="cls-23" d="M199.05,178a0.57,0.57,0,0,0-.68.92q1.29,1,2.55,2a0.57,0.57,0,0,0,.71-0.89Q200.36,179,199.05,178Z" transform="translate(-18.76 -159.25)"/><path class="cls-23" d="M184.9,169.9c-1-.4-2.05-0.77-3.09-1.1a0.57,0.57,0,0,0-.35,1.09c1,0.32,2,.69,3,1.08A0.57,0.57,0,1,0,184.9,169.9Z" transform="translate(-18.76 -159.25)"/><path class="cls-23" d="M190.82,172.7c-1-.53-1.94-1-2.92-1.49a0.57,0.57,0,1,0-.49,1c1,0.45,1.91.94,2.86,1.46A0.57,0.57,0,0,0,190.82,172.7Z" transform="translate(-18.76 -159.25)"/><path class="cls-23" d="M178.65,167.9c-1-.26-2.13-0.49-3.21-0.69a0.57,0.57,0,0,0-.2,1.12c1.06,0.19,2.11.42,3.14,0.67l0.14,0A0.57,0.57,0,0,0,178.65,167.9Z" transform="translate(-18.76 -159.25)"/><path class="cls-23" d="M165.66,166.36h0c-1.08,0-2.18,0-3.28.11a0.57,0.57,0,0,0,0,1.14h0c1.07-.07,2.15-0.1,3.21-0.11A0.57,0.57,0,0,0,165.66,166.36Z" transform="translate(-18.76 -159.25)"/><path class="cls-23" d="M172.2,166.73c-1.08-.13-2.18-0.22-3.27-0.28a0.56,0.56,0,0,0-.6.54,0.57,0.57,0,0,0,.54.6c1.07,0.06,2.14.15,3.2,0.28h0.07A0.57,0.57,0,0,0,172.2,166.73Z" transform="translate(-18.76 -159.25)"/><path class="cls-23" d="M336.25,233.45l-3.24.12a0.57,0.57,0,0,0,0,1.14h0l3.25-.12a0.57,0.57,0,0,0,.55-0.59A0.58,0.58,0,0,0,336.25,233.45Z" transform="translate(-18.76 -159.25)"/><path class="cls-23" d="M339.46,218.08a0.57,0.57,0,0,0,.2,0q1.53-.57,3-1.21a0.57,0.57,0,1,0-.44-1.05q-1.48.63-3,1.19A0.57,0.57,0,0,0,339.46,218.08Z" transform="translate(-18.76 -159.25)"/><path class="cls-23" d="M336.22,218q-1.53.51-3.08,1a0.57,0.57,0,0,0,.16,1.12l0.16,0q1.57-.46,3.12-1A0.57,0.57,0,1,0,336.22,218Z" transform="translate(-18.76 -159.25)"/><path class="cls-23" d="M342.73,233.18l-3.24.13a0.57,0.57,0,0,0,0,1.14h0l3.24-.13a0.57,0.57,0,0,0,.55-0.6A0.56,0.56,0,0,0,342.73,233.18Z" transform="translate(-18.76 -159.25)"/><path class="cls-23" d="M343.51,201.16c-0.42-.16-0.83-0.31-1.24-0.44l-1.88-.59a0.57,0.57,0,1,0-.34,1.09l1.87,0.59c0.38,0.12.78,0.26,1.17,0.42a0.58,0.58,0,0,0,.21,0A0.57,0.57,0,0,0,343.51,201.16Z" transform="translate(-18.76 -159.25)"/><path class="cls-23" d="M330,219.86q-1.56.4-3.14,0.75a0.57,0.57,0,0,0,.12,1.13h0.13q1.59-.36,3.17-0.76A0.57,0.57,0,1,0,330,219.86Z" transform="translate(-18.76 -159.25)"/><path class="cls-23" d="M345.68,215.5l0.33-.15a16.79,16.79,0,0,0,2.6-1.48,0.57,0.57,0,0,0-.67-0.93,15.87,15.87,0,0,1-2.42,1.37l-0.32.15a0.57,0.57,0,0,0,.24,1.09A0.57,0.57,0,0,0,345.68,215.5Z" transform="translate(-18.76 -159.25)"/><path class="cls-23" d="M320.65,223h0.09q1.61-.26,3.21-0.57a0.57,0.57,0,1,0-.22-1.12q-1.58.3-3.18,0.57A0.57,0.57,0,0,0,320.65,223Z" transform="translate(-18.76 -159.25)"/><path class="cls-23" d="M324,233.85l-3.24.06a0.57,0.57,0,0,0,0,1.14h0L324,235a0.57,0.57,0,0,0,.56-0.58A0.59,0.59,0,0,0,324,233.85Z" transform="translate(-18.76 -159.25)"/><path class="cls-23" d="M329.77,233.67l-3.24.09a0.57,0.57,0,0,0,0,1.14h0l3.25-.09a0.57,0.57,0,0,0,.55-0.59A0.56,0.56,0,0,0,329.77,233.67Z" transform="translate(-18.76 -159.25)"/><path class="cls-23" d="M355.69,232.58l-3.24.17a0.57,0.57,0,0,0,0,1.14h0l3.25-.17A0.57,0.57,0,1,0,355.69,232.58Z" transform="translate(-18.76 -159.25)"/><path class="cls-23" d="M265.87,221.19q-1.58-.33-3.15-0.7a0.57,0.57,0,1,0-.26,1.11q1.59,0.38,3.19.71h0.12A0.57,0.57,0,0,0,265.87,221.19Z" transform="translate(-18.76 -159.25)"/><path class="cls-23" d="M368.56,231.36q-1.6.23-3.2,0.41a0.57,0.57,0,0,0,.06,1.14h0.07q1.62-.19,3.23-0.41A0.57,0.57,0,1,0,368.56,231.36Z" transform="translate(-18.76 -159.25)"/><path class="cls-23" d="M374.91,230.24q-1.57.34-3.16,0.62a0.57,0.57,0,0,0,.1,1.14h0.1q1.61-.28,3.2-0.63A0.57,0.57,0,1,0,374.91,230.24Z" transform="translate(-18.76 -159.25)"/><path class="cls-23" d="M387.91,226.66a0.57,0.57,0,0,0-.75-0.29c-1,.43-2,0.83-3,1.21a0.57,0.57,0,0,0,.2,1.11,0.59,0.59,0,0,0,.2,0c1-.38,2.05-0.8,3-1.23A0.57,0.57,0,0,0,387.91,226.66Z" transform="translate(-18.76 -159.25)"/><path class="cls-23" d="M317.36,222.32q-1.6.22-3.21,0.41a0.57,0.57,0,0,0,.06,1.14h0.07q1.62-.19,3.23-0.41A0.57,0.57,0,1,0,317.36,222.32Z" transform="translate(-18.76 -159.25)"/><path class="cls-23" d="M362.15,232.11q-1.61.15-3.22,0.26a0.57,0.57,0,0,0,0,1.14h0q1.62-.12,3.24-0.27A0.57,0.57,0,1,0,362.15,232.11Z" transform="translate(-18.76 -159.25)"/><path class="cls-23" d="M350.34,207.26a0.57,0.57,0,0,0-.37.72,3.94,3.94,0,0,1,.19,1.19,4.11,4.11,0,0,1-.34,1.58l0.53,0.22,0.56,0.14a5.14,5.14,0,0,0,.39-1.95,5.07,5.07,0,0,0-.24-1.53A0.57,0.57,0,0,0,350.34,207.26Z" transform="translate(-18.76 -159.25)"/><path class="cls-23" d="M349.22,232.91L346,233a0.57,0.57,0,0,0,0,1.14h0l3.24-.14A0.57,0.57,0,0,0,349.22,232.91Z" transform="translate(-18.76 -159.25)"/><path class="cls-23" d="M381.14,228.61c-1,.31-2,0.61-3.09.88a0.57,0.57,0,0,0,.14,1.13l0.14,0c1.07-.28,2.12-0.58,3.14-0.9A0.57,0.57,0,1,0,381.14,228.61Z" transform="translate(-18.76 -159.25)"/><path class="cls-23" d="M310.94,223.06q-1.61.15-3.22,0.27a0.57,0.57,0,0,0,0,1.14h0q1.62-.12,3.25-0.27a0.57,0.57,0,0,0,.52-0.62A0.56,0.56,0,0,0,310.94,223.06Z" transform="translate(-18.76 -159.25)"/><path class="cls-23" d="M272.78,193.71q-1.62.17-3.23,0.38a0.57,0.57,0,0,0,.07,1.14h0.07q1.6-.2,3.21-0.38A0.57,0.57,0,0,0,272.78,193.71Z" transform="translate(-18.76 -159.25)"/><path class="cls-23" d="M278.65,223.12q-1.61-.16-3.21-0.36a0.57,0.57,0,0,0-.14,1.13q1.62,0.2,3.24.36h0.06A0.57,0.57,0,0,0,278.65,223.12Z" transform="translate(-18.76 -159.25)"/><path class="cls-23" d="M283.07,232.66l-3.22-.34a0.57,0.57,0,0,0-.13,1.14l3.24,0.34H283A0.57,0.57,0,0,0,283.07,232.66Z" transform="translate(-18.76 -159.25)"/><path class="cls-23" d="M272.23,222.32q-1.6-.24-3.19-0.52a0.57,0.57,0,0,0-.2,1.13q1.6,0.28,3.22.53h0.09A0.57,0.57,0,0,0,272.23,222.32Z" transform="translate(-18.76 -159.25)"/><path class="cls-23" d="M285.09,223.61q-1.61-.09-3.23-0.21a0.57,0.57,0,0,0-.09,1.14q1.62,0.12,3.25.21h0A0.57,0.57,0,0,0,285.09,223.61Z" transform="translate(-18.76 -159.25)"/><path class="cls-23" d="M266.32,194.53q-1.61.24-3.22,0.5a0.57,0.57,0,0,0,.09,1.14h0.09q1.6-.27,3.19-0.5A0.57,0.57,0,0,0,267,195,0.56,0.56,0,0,0,266.32,194.53Z" transform="translate(-18.76 -159.25)"/><path class="cls-23" d="M271.63,231.06q-1.59-.26-3.18-0.56a0.57,0.57,0,1,0-.21,1.12q1.6,0.3,3.21.56h0.09A0.57,0.57,0,0,0,271.63,231.06Z" transform="translate(-18.76 -159.25)"/><path class="cls-23" d="M278,232l-3.21-.44a0.56,0.56,0,0,0-.65.48,0.57,0.57,0,0,0,.48.65l3.22,0.44H278A0.57,0.57,0,0,0,278,232Z" transform="translate(-18.76 -159.25)"/><path class="cls-23" d="M291.55,223.83q-1.62,0-3.23-.08a0.59,0.59,0,0,0-.59.55,0.57,0.57,0,0,0,.55.59q1.63,0.06,3.25.08h0A0.57,0.57,0,0,0,291.55,223.83Z" transform="translate(-18.76 -159.25)"/><path class="cls-23" d="M299.38,193.05q-1.63-.08-3.25-0.12a0.58,0.58,0,0,0-.59.56,0.57,0.57,0,0,0,.56.59q1.62,0,3.23.12h0A0.57,0.57,0,0,0,299.38,193.05Z" transform="translate(-18.76 -159.25)"/><path class="cls-23" d="M304.49,223.54l-1.9.1-1.34.06a0.57,0.57,0,0,0,0,1.14h0l1.35-.06,1.9-.1a0.57,0.57,0,0,0,.54-0.6A0.56,0.56,0,0,0,304.49,223.54Z" transform="translate(-18.76 -159.25)"/><path class="cls-23" d="M306.42,193.41q-1.62-.14-3.25-0.24a0.58,0.58,0,0,0-.61.53,0.57,0.57,0,0,0,.53.61q1.61,0.11,3.23.24h0A0.57,0.57,0,0,0,306.42,193.41Z" transform="translate(-18.76 -159.25)"/><path class="cls-23" d="M298,223.8l-3.23,0a0.57,0.57,0,0,0,0,1.14h0l3.25,0a0.57,0.57,0,0,0,.56-0.59A0.56,0.56,0,0,0,298,223.8Z" transform="translate(-18.76 -159.25)"/><path class="cls-23" d="M292.28,192.75h-0.66c-0.09.3-.22,0.72-0.34,1.14h1A0.57,0.57,0,0,0,292.28,192.75Z" transform="translate(-18.76 -159.25)"/><path class="cls-23" d="M124.17,186.65a0.57,0.57,0,0,1-.44-0.93q0.52-.64,1.06-1.26a0.57,0.57,0,0,1,.86.75q-0.53.6-1,1.23A0.57,0.57,0,0,1,124.17,186.65Z" transform="translate(-18.76 -159.25)"/><path class="cls-21" d="M55.74,322c-0.29,1.22-3.07,14.4-3.07,14.4l-28.75-2.76Z" transform="translate(-18.76 -159.25)"/><polygon class="cls-3" points="0 157.58 36.98 162.79 5.16 174.43 0 157.58"/><polygon class="cls-22" points="36.98 162.79 63.83 174.99 5.16 174.43 36.98 162.79"/><rect class="cls-23" x="64.43" y="320.08" width="1.62" height="1.14" transform="translate(-91.78 -135.18) rotate(-13.49)"/><path class="cls-23" d="M69.29,320.26L69,319.15l3.12-.77,0.27,1.11Zm6.25-1.55-0.28-1.11,3.11-.8,0.29,1.11Zm6.24-1.63-0.3-1.1,3.1-.85,0.31,1.1ZM88,315.34l-0.32-1.1,3.07-.92,0.34,1.09Zm6.17-1.9-0.35-1.09,3-1,0.37,1.08Zm6.11-2.1-0.39-1.07q1.51-.55,3-1.13l0.41,1.07Q101.78,310.78,100.26,311.34Zm6-2.34-0.44-1.06q1.48-.61,2.95-1.26l0.46,1Q107.78,308.38,106.28,309Zm5.91-2.61-0.49-1q1.45-.68,2.87-1.41l0.52,1Q113.66,305.7,112.19,306.39Zm5.77-2.93-0.55-1q1.4-.76,2.79-1.57l0.58,1Q119.38,302.69,118,303.46Zm5.58-3.27-0.61-1q1.35-.85,2.67-1.75l0.64,0.94Q124.91,299.33,123.55,300.2Zm5.34-3.66-0.68-.92q1.28-1,2.53-2l0.72,0.89Q130.19,295.57,128.89,296.54Zm5.05-4.06-0.75-.86q1.21-1,2.37-2.14l0.78,0.83Q135.17,291.42,133.94,292.48Zm4.72-4.44-0.82-.8q1.12-1.14,2.19-2.33l0.85,0.77Q139.8,286.87,138.66,288Zm4.34-4.82-0.88-.73q1-1.24,2-2.51l0.91,0.69Q144,282,143,283.21Zm3.89-5.2-0.95-.64c0.6-.88,1.18-1.79,1.72-2.68l1,0.59C148.09,276.2,147.5,277.12,146.89,278Zm3.37-5.55-1-.54c0.51-.94,1-1.9,1.44-2.84l1,0.49C151.27,270.53,150.78,271.51,150.26,272.47Zm-11.18-2.06v-1.14c1.05,0,2.12-.06,3.17-0.15l0.1,1.14C141.26,270.35,140.17,270.4,139.08,270.41Zm-3.26-.08q-1.21-.08-2.41-0.22l-0.84-.11,0.17-1.13,0.81,0.11q1.17,0.14,2.35.21Zm9.75-.46-0.18-1.13c1-.16,2.09-0.37,3.12-0.61l0.26,1.11C147.72,269.49,146.64,269.7,145.57,269.87Zm-16.21-.54a29.93,29.93,0,0,1-3.12-1l0.42-1.06a28.83,28.83,0,0,0,3,1Zm22.56-.92-0.34-1.09c1-.31,2-0.66,3-1l0.41,1.07C154,267.72,153,268.08,151.92,268.4Zm-28.65-1.49a24.35,24.35,0,0,1-2.79-1.76l0.68-.92a23.17,23.17,0,0,0,2.66,1.67Zm29.76-.32-1.06-.43c0.4-1,.77-2,1.1-3l1.08,0.36C153.81,264.55,153.44,265.57,153,266.59Zm5-.54-0.49-1c1-.45,1.91-0.94,2.82-1.46l0.56,1C159.95,265.08,159,265.58,158,266ZM118,263a16.22,16.22,0,0,1-2.08-2.6l1-.61a15.06,15.06,0,0,0,1.93,2.42Zm45.69-.14-0.63-1c0.82-.55,1.63-1.13,2.4-1.73l0.17-.14,0.69,0.91-0.12.09C165.34,261.68,164.51,262.28,163.66,262.84Zm-8.56-2.41-1.1-.3c0.28-1,.52-2.06.73-3.09l1.12,0.23C155.63,258.32,155.38,259.38,155.1,260.43Zm13.7-1.6L168,258c0.78-.7,1.54-1.45,2.27-2.22l0.83,0.79C170.38,257.34,169.59,258.11,168.8,258.83Zm-54.34-1.47a12.45,12.45,0,0,1-.61-3.3L115,254a11.32,11.32,0,0,0,.55,3Zm58.82-3.25-0.88-.72c0.67-.82,1.31-1.67,1.92-2.53l0.94,0.66C174.63,252.4,174,253.27,173.28,254.1Zm-16.89,0-1.13-.16q0.16-1.19.27-2.41,0-.37.06-0.75l1.14,0.07q0,0.39-.06.78Q156.56,252.84,156.39,254.06ZM115.26,251l-1.12-.25a14.24,14.24,0,0,1,1.12-3.15l1,0.5A13,13,0,0,0,115.26,251ZM177,248.78l-1-.59c0.55-.9,1.07-1.84,1.54-2.78l1,0.52C178.13,246.9,177.59,247.86,177,248.78ZM155.6,247.6a17,17,0,0,0-.46-3.08l1.11-.28a18.11,18.11,0,0,1,.49,3.29Zm-37.68-2.18-0.91-.69a20.68,20.68,0,0,1,2.21-2.46L120,243.1A19.55,19.55,0,0,0,117.93,245.42ZM180,243l-1.05-.45c0.41-1,.79-2,1.13-3l1.08,0.37C180.81,241,180.42,242,180,243Zm-26-1.3a8.45,8.45,0,0,0-1.57-2l-0.36-.31,0.73-.88,0.41,0.36a9.63,9.63,0,0,1,1.78,2.25Zm-31.6-.59-0.66-.93c0.44-.31.89-0.62,1.35-0.9s1-.57,1.44-0.84l0.55,1q-0.7.38-1.38,0.8C123.28,240.51,122.85,240.8,122.43,241.1Zm5.52-3L127.51,237a30.61,30.61,0,0,1,3.1-1.07l0.32,1.1A29.57,29.57,0,0,0,127.94,238.08Zm21.54-.25a19.18,19.18,0,0,0-2.18-.78l-0.78-.22,0.29-1.11,0.81,0.23a20.21,20.21,0,0,1,2.31.82Zm32.61-1-1.11-.29c0.27-1,.5-2.07.69-3.1l1.12,0.21C182.61,234.7,182.38,235.77,182.1,236.82Zm-48.1-.48-0.2-1.13a31.12,31.12,0,0,1,3.25-.4l0.08,1.14A30,30,0,0,0,134,236.34Zm9.43-.14a29.51,29.51,0,0,0-3.14-.29l0-1.14a30.47,30.47,0,0,1,3.26.3Zm39.84-5.79-1.14-.12c0.11-1.06.18-2.12,0.2-3.16l1.14,0C183.46,228.23,183.39,229.32,183.27,230.41Zm-1-6.45c-0.07-1.07-.19-2.12-0.35-3.14l1.13-.18c0.17,1.06.29,2.15,0.37,3.25Zm-1-6.23a28,28,0,0,0-1-3l1.06-.42a29.15,29.15,0,0,1,1,3.12Zm-2.32-5.84a23.42,23.42,0,0,0-1.6-2.53l-0.09-.12,0.92-.68,0.09,0.13a24.58,24.58,0,0,1,1.68,2.65Zm-3.71-5a26.17,26.17,0,0,0-2.31-2.13l0.72-.89A27.27,27.27,0,0,1,176,206Zm-4.86-4c-0.86-.56-1.78-1.1-2.73-1.6l0.53-1c1,0.52,1.93,1.08,2.82,1.66Zm-5.59-3c-0.94-.4-1.94-0.79-3-1.15l0.38-1.08c1.05,0.37,2.07.77,3,1.18Zm-6-2.11c-1-.29-2-0.55-3.09-0.8l0.26-1.11c1.07,0.25,2.13.52,3.15,0.81Zm-47.68-.42v-1.14a29,29,0,0,0,3.15-.18l0.12,1.14A30.08,30.08,0,0,1,111.08,197.35Zm-3.3-.26a16.1,16.1,0,0,1-3.21-.89l0.42-1.06a14.94,14.94,0,0,0,3,.83Zm9.79-.39-0.19-1.13,2-.35,1.12-.2,0.2,1.13-1.12.2Zm35-.38q-1.57-.3-3.15-0.53l0.17-1.13q1.6,0.24,3.19.54Zm-28.64-.67-0.16-1.13q1.6-.23,3.21-0.39l0.12,1.14Q125.49,195.43,123.9,195.65Zm22.32-.28q-1.59-.18-3.18-0.3l0.09-1.14q1.62,0.12,3.22.31Zm-16-.37-0.08-1.14q1.62-.11,3.24-0.16l0,1.14Q131.86,194.89,130.26,195Zm9.59-.12q-1.6-.07-3.2-0.07v-1.14q1.62,0,3.24.08Zm-38.23-.26a10.88,10.88,0,0,1-2.43-2.36l0.92-.68a9.77,9.77,0,0,0,2.17,2.11Zm-3.93-5.41a9.43,9.43,0,0,1-.35-2.57q0-.41,0-0.82l1.14,0.09q0,0.36,0,.73a8.33,8.33,0,0,0,.31,2.26Zm1.52-6.26-1.07-.41a15.59,15.59,0,0,1,1.54-3l1,0.63A14.47,14.47,0,0,0,99.21,182.95Zm3.37-5.18-0.83-.78a21.9,21.9,0,0,1,2.44-2.23l0.71,0.9A20.63,20.63,0,0,0,102.58,177.77Zm4.91-3.85-0.56-1a22.8,22.8,0,0,1,3-1.42l0.41,1.07A21.55,21.55,0,0,0,107.49,173.92Zm5.81-2.23-0.22-1.12a14.4,14.4,0,0,1,3.33-.28l0,1.14A13.31,13.31,0,0,0,113.31,171.69Z" transform="translate(-18.76 -159.25)"/><path class="cls-23" d="M120.88,172.71a9,9,0,0,0-1.37-.66l0.41-1.07a10,10,0,0,1,1.55.75Z" transform="translate(-18.76 -159.25)"/><ellipse class="cls-24" cx="298.34" cy="277.46" rx="10.73" ry="24.81" transform="translate(-41.37 369.18) rotate(-80.95)"/><ellipse class="cls-24" cx="588.31" cy="159.3" rx="17.79" ry="6.86"/><polygon class="cls-2" points="7.55 196.54 8.08 184.46 54.3 190.5 7.55 196.54"/><polygon class="cls-24" points="369.64 132.6 392.63 136.64 422.25 117.08 381.31 125.87 374.79 121.82 358.86 125.86 369.64 132.6"/></g></g></svg>